<svg width="36" height="36" viewBox="0 0 36 36" fill="none" xmlns="http://www.w3.org/2000/svg">
<path d="M25.7086 16.5892L25.7534 4.92261L11.1702 4.86661L11.1478 10.6999L5.31451 10.6775L5.23612 31.094L16.9027 31.1388L16.9251 25.3055L19.8417 25.3167L19.8193 31.15L31.4859 31.1948L31.5419 16.6116L25.7086 16.5892ZM11.0806 28.1998L8.16396 28.1886L8.17516 25.2719L11.0918 25.2831L11.0806 28.1998ZM11.103 22.3665L8.18636 22.3553L8.19756 19.4386L11.1142 19.4498L11.103 22.3665ZM11.1254 16.5332L8.20876 16.522L8.21996 13.6053L11.1366 13.6165L11.1254 16.5332ZM16.9363 22.3889L14.0197 22.3777L14.0309 19.461L16.9475 19.4722L16.9363 22.3889ZM16.9587 16.5556L14.0421 16.5444L14.0532 13.6277L16.9699 13.6389L16.9587 16.5556ZM16.9811 10.7223L14.0644 10.7111L14.0756 7.79446L16.9923 7.80566L16.9811 10.7223ZM22.7696 22.4113L19.8529 22.4001L19.8641 19.4834L22.7808 19.4946L22.7696 22.4113ZM22.792 16.578L19.8753 16.5668L19.8865 13.6501L22.8032 13.6613L22.792 16.578ZM22.8144 10.7447L19.8977 10.7335L19.9089 7.81686L22.8256 7.82806L22.8144 10.7447ZM28.5805 28.267L25.6638 28.2558L25.675 25.3391L28.5917 25.3503L28.5805 28.267ZM28.6029 22.4337L25.6862 22.4225L25.6974 19.5058L28.6141 19.517L28.6029 22.4337Z" fill="#00A2ED"/>
</svg>
