<svg width="36" height="36" viewBox="0 0 36 36" fill="none" xmlns="http://www.w3.org/2000/svg">
<path d="M25.7336 10.458L28.6502 10.4692L28.639 13.3858L25.7224 13.3746L25.7336 10.458ZM25.7112 16.2913L28.6278 16.3025L28.6166 19.2191L25.7 19.2079L25.7112 16.2913ZM25.6888 22.1246L28.6054 22.1358L28.5942 25.0524L25.6776 25.0412L25.6888 22.1246ZM2.37801 16.2017L2.32201 30.7849L11.0719 30.8185L11.0999 23.5269L14.0166 23.5381L13.9886 30.8297L22.7385 30.8633L22.7945 16.2801L12.6143 8.94928L2.37801 16.2017ZM19.8331 27.9355L16.9164 27.9243L16.9444 20.6327L8.1945 20.5991L8.1665 27.8907L5.24985 27.8795L5.28905 17.6712L12.6003 12.5951L19.8723 17.7272L19.8331 27.9355Z" fill="#00A2ED"/>
<path d="M15.5476 4.58551L15.5366 7.45841L18.4452 9.55501L18.4531 7.51336L31.578 7.56375L31.4996 27.9803L25.6663 27.9579L25.6551 30.8745L34.405 30.9081L34.5058 4.65831L15.5476 4.58551Z" fill="#00A2ED"/>
</svg>
