<svg width="36" height="36" viewBox="0 0 36 36" fill="none" xmlns="http://www.w3.org/2000/svg">
<path d="M27.8753 13.8238L27.905 6.09469L23.5301 6.07789L23.5155 9.86953L17.7024 4.59717L3.06874 17.6661L7.44371 17.6829L7.39891 29.3495L16.1488 29.3831L16.1824 20.6331L19.0991 20.6443L19.0655 29.3943L27.8154 29.4279L27.8602 17.7613L32.2352 17.7781L27.8753 13.8238ZM24.91 26.5L21.9933 26.4888L22.0269 17.7389L13.277 17.7053L13.2434 26.4552L10.3268 26.444L10.3705 15.0545L17.6873 8.52006L24.9537 15.1105L24.91 26.5Z" fill="#00A2ED"/>
<path d="M14.7464 14.7942L20.5797 14.8166C20.5858 13.2125 19.2784 11.8949 17.6742 11.8888C16.0701 11.8826 14.7525 13.1901 14.7464 14.7942Z" fill="#00A2ED"/>
</svg>
