<svg width="36" height="36" viewBox="0 0 36 36" fill="none" xmlns="http://www.w3.org/2000/svg">
<path d="M11.8608 6.33099L3.07724 15.0473L3.02124 29.6306L20.5211 29.6978L20.5771 15.1145L11.8608 6.33099ZM17.6157 26.7699L13.2407 26.7531L13.2575 22.3781L10.3409 22.3669L10.3241 26.7419L5.94909 26.7251L5.98924 16.2689L11.8449 10.458L17.6558 16.3137L17.6157 26.7699ZM13.2687 19.4615L10.3521 19.4503L10.3633 16.5337L13.2799 16.5449L13.2687 19.4615ZM26.3544 29.7202L26.4196 12.7307L20.1003 6.36263L15.9732 6.34679L23.4983 13.9299L23.4378 29.709L26.3544 29.7202ZM32.1877 29.7426L32.2622 10.3323L28.3544 6.39433L24.2273 6.37848L29.3409 11.5315L29.271 29.7314L32.1877 29.7426Z" fill="#00A2ED"/>
</svg>
