<svg width="36" height="36" viewBox="0 0 36 36" fill="none" xmlns="http://www.w3.org/2000/svg">
<path d="M27.8667 15.4404C26.2626 15.4343 24.945 16.7417 24.9389 18.3459L23.4805 18.3403L23.5309 5.21537L4.54475 12.4342L4.47196 31.3924L30.7218 31.4932L30.7722 18.3683C30.7783 16.7641 29.4709 15.4466 27.8667 15.4404ZM7.45373 14.4433L20.598 9.44789L20.5639 18.3291L13.2723 18.3011L13.2331 28.5093L7.3998 28.4869L7.45373 14.4433ZM27.8163 28.5653L23.4413 28.5485L23.4581 24.1736L20.5415 24.1624L20.5247 28.5373L16.1497 28.5205L16.1777 21.2289L27.8443 21.2737L27.8163 28.5653Z" fill="#00A2ED"/>
</svg>
