<svg width="279" height="35" viewBox="0 0 279 35" fill="none" xmlns="http://www.w3.org/2000/svg">
<g clip-path="url(#clip0_195_2012)">
<path d="M22.3583 3.48919L14.2957 9.02014H7.26866V13.8402L1.25122 17.9607V4.35366C1.25122 3.69962 1.55324 3.36975 2.14866 3.36975H21.806C22.0333 3.36975 22.2231 3.40956 22.3612 3.49203L22.3583 3.48919Z" fill="white"/>
<path d="M22.7811 4.98212V8.07035C22.7811 8.3206 22.7006 8.53672 22.528 8.73009C22.3554 8.92346 22.1052 9.02014 21.7629 9.02014H16.896L22.784 4.98212H22.7811Z" fill="white"/>
<path d="M23.9403 29.3667V33.1317C23.9403 33.7118 23.6383 34.0019 23.0343 34.0019H2.14579C1.9013 34.0019 1.68844 33.9365 1.51873 33.8C1.3404 33.6549 1.24835 33.436 1.24835 33.1402V19.7522L7.2658 15.626V28.3543H22.994C23.3766 28.3543 23.6297 28.4339 23.7534 28.6046C23.877 28.7666 23.9403 29.0226 23.9403 29.3695V29.3667Z" fill="white"/>
<path d="M32.3135 11.0278V33.1374C32.3135 33.709 31.9943 33.999 31.3528 33.999H27.2022C26.6557 33.9734 26.3795 33.6834 26.3795 33.1374V4.31387C26.3795 4.23993 26.3881 4.17737 26.3968 4.11197L32.3164 11.0278H32.3135Z" fill="white"/>
<path d="M44.0551 3.36975L33.5763 9.93012L27.7056 3.36975H44.0551Z" fill="white"/>
<path d="M47.5441 4.3622V7.94808C47.5441 8.19832 47.4636 8.41444 47.2996 8.61634C47.1357 8.81824 46.9084 8.91493 46.6064 8.91493H37.8161L46.8509 3.38397C47.3169 3.4636 47.5441 3.78777 47.5441 4.35935V4.3622Z" fill="white"/>
<path d="M56.3344 0.378209L52.3305 10.2458L50.2192 7.52153L32.4603 19.4337L26.3767 13.4307L23.3938 10.4704L7.2658 17.4517L1.24836 20.0622L0 20.6025L1.24836 19.7493L7.2658 15.6232L16.9018 9.02015L22.7811 4.98213L25.5281 3.10245L26.3939 4.11196L32.3136 11.0278L33.0212 11.8496L37.8161 8.91493L46.8509 3.38682L47.314 3.10245L45.6284 0L56.3344 0.378209Z" fill="white"/>
<path d="M16.9046 19.0555H4.85248V23.7618H16.9046V19.0555Z" fill="white"/>
<path d="M42.6859 19.0555H30.6337V23.7618H42.6859V19.0555Z" fill="white"/>
<path d="M61.0287 10.1406C61.0374 9.714 61.2416 9.49504 61.6242 9.49504H74.614C74.8499 9.49504 75.0138 9.56044 75.1116 9.68841C75.2094 9.81637 75.2497 9.98699 75.2497 10.1889L75.2094 12.5833C75.2008 12.7454 75.1519 12.8989 75.0311 13.0184C74.916 13.1463 74.7463 13.2117 74.5248 13.2117H64.9522L64.8774 17.3464H72.264C72.4366 17.3379 72.5833 17.372 72.6868 17.4687C72.7904 17.5654 72.8421 17.7275 72.8421 17.9521L72.8019 20.4176C72.7933 20.5797 72.7443 20.7247 72.6638 20.8527C72.566 20.9807 72.4193 21.0375 72.2237 21.0375H64.8199L64.7307 26.0026H74.6629C74.916 26.0026 75.0714 26.0509 75.1519 26.1647C75.2324 26.2784 75.2756 26.4462 75.267 26.6737L75.2267 29.1562C75.2267 29.5344 75.0225 29.7193 74.6313 29.7193H61.2934C61.1294 29.7193 61 29.6795 60.8849 29.5828C60.7699 29.5032 60.7123 29.3496 60.7123 29.1562L61.0316 10.1406H61.0287ZM76.9295 29.5344C76.8001 29.5344 76.7339 29.4776 76.7339 29.3638C76.7339 29.324 76.7598 29.2501 76.8087 29.1619V29.1221C76.8087 29.0652 76.826 29.0084 76.849 28.96C76.8749 28.9031 76.9065 28.8633 76.9295 28.8235L82.6449 20.7702C82.1646 20.0451 81.7159 19.3683 81.2902 18.7313C80.8673 18.1029 80.4416 17.4971 80.0504 16.9028C79.6506 16.3142 79.2508 15.7341 78.8682 15.154C78.4684 14.5738 78.0686 13.9767 77.6458 13.3482C77.5796 13.2515 77.5163 13.1463 77.4818 13.0496C77.4329 12.9444 77.4156 12.8648 77.4156 12.7823C77.4156 12.6771 77.4645 12.589 77.5623 12.5236C77.6601 12.4496 77.8155 12.4183 78.0341 12.4183H80.4876C80.7494 12.4183 80.9536 12.4439 81.1147 12.4837C81.27 12.5236 81.3995 12.589 81.5145 12.6771C81.6296 12.7653 81.7274 12.8875 81.8252 13.0326C81.9143 13.1776 82.0208 13.3482 82.1502 13.5473C82.6219 14.2809 83.0879 15.0231 83.528 15.7653C83.9681 16.5161 84.4254 17.2554 84.8742 18.0062C85.1273 17.6507 85.389 17.264 85.6565 16.8374C85.9327 16.4194 86.2117 15.9843 86.4792 15.5407C86.7553 15.1056 87.0343 14.6705 87.2932 14.244C87.5636 13.826 87.8139 13.4307 88.0583 13.0667C88.2137 12.825 88.3517 12.6629 88.4812 12.5577C88.6049 12.4695 88.7659 12.4212 88.9615 12.4212H91.9703C92.1256 12.4212 92.2637 12.4525 92.3787 12.5093C92.4851 12.5662 92.534 12.6629 92.534 12.7823C92.5427 12.8875 92.4765 13.0326 92.3557 13.2259C91.8983 13.8459 91.4583 14.4601 91.0441 15.0487C90.6356 15.6459 90.2128 16.2346 89.7813 16.8289C89.3499 17.4346 88.9184 18.0545 88.4697 18.683C88.0123 19.3285 87.532 20.0138 87.0171 20.7475C87.9145 22.0698 88.8177 23.3921 89.7008 24.7144C90.5896 26.0282 91.487 27.359 92.3845 28.687C92.4592 28.7922 92.5225 28.906 92.5714 29.0169C92.629 29.1392 92.652 29.2415 92.652 29.3468C92.652 29.452 92.6031 29.5401 92.5053 29.6141C92.4161 29.688 92.2521 29.7193 92.0335 29.7193H88.8695C88.6739 29.7193 88.5186 29.6709 88.3978 29.5657C88.2683 29.469 88.1446 29.324 88.0238 29.1221L87.6815 28.5647C87.1925 27.7344 86.7122 26.9211 86.2232 26.0993C85.7428 25.286 85.2682 24.4642 84.7879 23.6338L81.7216 28.5989C81.5433 28.8975 81.3534 29.1619 81.1578 29.3809C81.0514 29.4946 80.9306 29.5657 80.7839 29.6141C80.6372 29.6709 80.4819 29.7022 80.3266 29.7193C80.1626 29.7278 79.9929 29.7363 79.8376 29.7278C79.6736 29.7193 79.5125 29.7193 79.3658 29.7193H77.197C77.0676 29.7193 76.9755 29.6624 76.9266 29.5344H76.9295ZM95.9109 12.5036C96.026 12.4468 96.1468 12.4155 96.2705 12.3984C96.3942 12.3899 96.515 12.3814 96.63 12.3814H97.9906C98.2523 12.3814 98.4479 12.461 98.5544 12.6146C98.6694 12.7681 98.7413 12.9615 98.7816 13.1947L99.0347 14.8639C99.3597 14.4999 99.6963 14.1558 100.053 13.8231C100.421 13.4932 100.812 13.2032 101.252 12.9444C101.684 12.6942 102.164 12.4923 102.696 12.3472C103.217 12.1937 103.798 12.1226 104.442 12.1226C105.265 12.1226 106.042 12.2278 106.775 12.4382C107.517 12.6572 108.193 12.953 108.838 13.3397C109.473 13.7264 110.046 14.1928 110.558 14.7331C111.064 15.2734 111.504 15.8706 111.869 16.5303C112.237 17.19 112.505 17.901 112.692 18.6659C112.879 19.4308 112.968 20.2299 112.954 21.0517C112.936 21.8821 112.83 22.6812 112.62 23.4376C112.398 24.2025 112.105 24.9135 111.714 25.5817C111.331 26.2415 110.874 26.8472 110.345 27.3875C109.815 27.9363 109.229 28.4027 108.584 28.7894C107.923 29.1676 107.224 29.4747 106.482 29.6852C105.74 29.9041 104.957 30.0065 104.149 30.0065C103.562 30.0065 103.024 29.9411 102.544 29.8217C102.055 29.6937 101.606 29.5145 101.189 29.2899C100.772 29.0652 100.398 28.8065 100.039 28.5164C99.6877 28.2263 99.3626 27.905 99.052 27.5666L98.9455 34.2009C98.9369 34.4256 98.8708 34.6132 98.7327 34.764C98.5946 34.9175 98.3904 34.9971 98.12 34.9971H95.885C95.6895 34.9971 95.5111 34.9232 95.3299 34.7867C95.1429 34.6417 95.0595 34.4483 95.0595 34.1981L95.4104 13.1833C95.4191 12.9899 95.468 12.8449 95.5485 12.7226C95.6377 12.6174 95.7527 12.5378 95.9081 12.498L95.9109 12.5036ZM109.111 21.0546C109.128 20.338 109.004 19.6612 108.76 19.0071C108.524 18.3616 108.182 17.79 107.75 17.3066C107.302 16.8147 106.79 16.4279 106.177 16.1464C105.573 15.8649 104.92 15.7198 104.212 15.7198C103.505 15.7198 102.826 15.8649 102.199 16.1379C101.572 16.4194 101.017 16.7976 100.545 17.2753C100.064 17.7502 99.6819 18.3076 99.3856 18.9446C99.0894 19.5816 98.9283 20.2584 98.9053 20.9664V21.0546C98.888 21.7797 99.0203 22.4736 99.2792 23.1276C99.5496 23.7874 99.9063 24.3618 100.372 24.8452C100.838 25.3372 101.382 25.7324 102.012 26.0225C102.639 26.3126 103.309 26.4576 104.034 26.4576C104.759 26.4576 105.394 26.3126 106.016 26.0225C106.628 25.7324 107.166 25.3372 107.621 24.8452C108.07 24.3618 108.435 23.7902 108.697 23.1276C108.958 22.4736 109.105 21.7826 109.114 21.0546H109.111ZM133.065 28.923C133.057 29.0851 133.025 29.2216 132.959 29.3269C132.884 29.4235 132.795 29.5117 132.689 29.56C132.582 29.6254 132.461 29.6652 132.32 29.688C132.174 29.7136 132.027 29.7193 131.88 29.7193H130.192C129.907 29.7193 129.712 29.6453 129.597 29.4946C129.481 29.3439 129.401 29.1477 129.352 28.906L129.295 27.7458C128.975 28.0614 128.627 28.3657 128.233 28.6415C127.851 28.923 127.433 29.1648 126.993 29.3581C126.545 29.5686 126.082 29.7221 125.584 29.8416C125.086 29.9553 124.58 30.0122 124.059 30.0122C123.251 30.0122 122.469 29.907 121.727 29.6908C120.985 29.4804 120.283 29.1761 119.63 28.7951C118.985 28.4083 118.399 27.942 117.869 27.3932C117.349 26.8529 116.9 26.2471 116.523 25.5874C116.155 24.9191 115.87 24.2082 115.675 23.4433C115.471 22.6869 115.381 21.8878 115.399 21.0574C115.407 20.2356 115.528 19.4365 115.758 18.6716C115.98 17.9066 116.287 17.1957 116.679 16.536C117.07 15.8763 117.542 15.2791 118.082 14.7388C118.629 14.1985 119.233 13.7321 119.892 13.3454C120.553 12.9586 121.261 12.6601 122.011 12.4439C122.771 12.2335 123.545 12.1283 124.359 12.1283C124.928 12.1283 125.475 12.1852 125.998 12.3131C126.513 12.4354 127.002 12.6032 127.451 12.8278C127.899 13.0525 128.314 13.3113 128.699 13.6326C129.073 13.9482 129.424 14.2866 129.726 14.6563L129.947 13.1975C129.988 13.0354 130.037 12.9075 130.077 12.7937C130.117 12.697 130.166 12.6089 130.232 12.5435C130.29 12.4781 130.362 12.4382 130.454 12.4155C130.552 12.3899 130.667 12.3842 130.796 12.3842H132.134C132.28 12.3842 132.427 12.4013 132.574 12.424C132.712 12.4496 132.844 12.498 132.956 12.5463C133.071 12.6117 133.16 12.6999 133.227 12.7965C133.301 12.9103 133.324 13.0383 133.324 13.1918L133.063 28.9259L133.065 28.923ZM119.19 21.0546C119.181 21.7797 119.296 22.4736 119.541 23.1191C119.776 23.7788 120.11 24.3533 120.559 24.8367C120.999 25.3201 121.52 25.7068 122.115 25.9969C122.71 26.2784 123.378 26.4235 124.097 26.4235C124.816 26.4235 125.506 26.2784 126.142 25.9969C126.786 25.7068 127.341 25.3201 127.813 24.8367C128.285 24.3533 128.662 23.7817 128.938 23.1191C129.223 22.4736 129.369 21.7797 129.378 21.0546C129.395 20.338 129.263 19.6612 129.01 19.0071C128.748 18.3616 128.397 17.79 127.943 17.2981C127.477 16.8061 126.939 16.4194 126.312 16.1208C125.685 15.8393 125 15.6857 124.272 15.6857C123.545 15.6857 122.886 15.8393 122.276 16.1208C121.672 16.4194 121.134 16.8061 120.677 17.2981C120.219 17.79 119.863 18.3616 119.601 19.0071C119.339 19.6612 119.201 20.338 119.184 21.0546H119.19ZM142.722 29.7193C142.011 29.7193 141.352 29.597 140.74 29.3894C140.113 29.179 139.575 28.8804 139.117 28.488C138.66 28.0955 138.303 27.6178 138.042 27.0377C137.789 26.4576 137.659 25.8035 137.673 25.0699L137.705 22.8205L137.82 15.8649H136.27C136.017 15.8649 135.821 15.808 135.7 15.6886C135.571 15.5748 135.505 15.3729 135.505 15.1085L135.536 13.1406C135.545 12.8819 135.617 12.697 135.749 12.5833C135.879 12.4781 136.074 12.4212 136.327 12.4212H137.883C137.892 11.9378 137.901 11.4543 137.909 10.9794C137.927 10.5131 137.935 10.0296 137.941 9.55191C137.95 9.36707 138.007 9.22204 138.119 9.11683C138.234 9.02014 138.404 8.92346 138.64 8.84383C138.795 8.78696 138.974 8.71587 139.204 8.64193C139.417 8.56231 139.635 8.47984 139.871 8.41728C140.098 8.34335 140.32 8.28932 140.538 8.23244C140.751 8.1841 140.921 8.15851 141.068 8.15851C141.352 8.15851 141.534 8.23813 141.614 8.39169C141.695 8.54525 141.738 8.74715 141.738 9.00308C141.729 9.57466 141.721 10.1406 141.698 10.7036C141.68 11.2752 141.672 11.8496 141.666 12.4212H143.608C143.843 12.4212 144.016 12.4866 144.145 12.5975C144.269 12.7255 144.324 12.9131 144.318 13.1861L144.286 15.0487C144.286 15.3388 144.22 15.5492 144.099 15.6772C143.97 15.8052 143.789 15.862 143.553 15.862H141.611C141.603 16.4592 141.594 16.9597 141.585 17.3607C141.577 17.773 141.568 18.1341 141.568 18.4498C141.56 18.7654 141.551 19.0555 141.56 19.3285C141.56 19.5958 141.56 19.9001 141.551 20.2157C141.542 20.5314 141.542 20.8925 141.534 21.3048C141.525 21.7172 141.516 22.2063 141.508 22.8035C141.508 22.8205 141.508 22.8347 141.499 22.8603C141.49 22.8859 141.49 22.8916 141.49 22.9087L141.459 24.6973C141.45 25.2945 141.557 25.7296 141.784 25.9941C142.02 26.2528 142.388 26.3893 142.909 26.3893C143.096 26.3893 143.242 26.4547 143.349 26.5827C143.455 26.7277 143.504 26.8898 143.504 27.0832L143.472 28.9771C143.464 29.2103 143.398 29.3894 143.268 29.5259C143.139 29.6539 142.949 29.7193 142.713 29.7193H142.722ZM148.641 24.8509C148.828 25.1495 149.058 25.4083 149.343 25.6244C149.619 25.8433 149.921 26.0197 150.215 26.1562C150.508 26.3012 150.793 26.3979 151.072 26.4633C151.348 26.5372 151.569 26.5685 151.725 26.5685C151.978 26.5685 152.271 26.5372 152.614 26.4803C152.956 26.4235 153.281 26.3353 153.583 26.1903C153.885 26.0452 154.147 25.8519 154.365 25.6187C154.569 25.377 154.685 25.0699 154.69 24.7002C154.699 24.3362 154.616 24.0405 154.463 23.813C154.299 23.5883 154.081 23.3949 153.796 23.2499C153.52 23.0964 153.192 22.9684 152.835 22.8717C152.475 22.7665 152.084 22.6613 151.684 22.5418C150.747 22.2916 149.947 21.9845 149.288 21.6233C148.635 21.2679 148.089 20.8584 147.683 20.3977C147.261 19.9313 146.959 19.4223 146.772 18.865C146.576 18.3161 146.487 17.719 146.501 17.0592C146.51 16.3256 146.665 15.6488 146.967 15.0374C147.261 14.426 147.678 13.9084 148.198 13.4733C148.728 13.0383 149.357 12.6999 150.097 12.4582C150.83 12.2164 151.647 12.1027 152.536 12.1027C153.163 12.1027 153.718 12.1596 154.216 12.2733C154.713 12.3871 155.162 12.5548 155.585 12.7823C156.002 13.007 156.393 13.2913 156.758 13.644C157.127 13.9909 157.492 14.3947 157.874 14.8525C158.004 15.0146 158.079 15.1739 158.07 15.3274C158.07 15.498 157.972 15.6488 157.794 15.7938C157.656 15.899 157.492 16.0355 157.314 16.1976C157.127 16.3597 156.94 16.5189 156.758 16.6725C156.571 16.826 156.408 16.9625 156.244 17.0678C156.08 17.1815 155.942 17.2384 155.826 17.2384C155.631 17.2384 155.444 17.1246 155.257 16.8829C155.061 16.6412 154.866 16.4308 154.67 16.2545C154.475 16.0782 154.27 15.9388 154.058 15.8279C153.845 15.7056 153.617 15.626 153.364 15.5606C153.111 15.5037 152.835 15.481 152.542 15.481C152.306 15.481 152.053 15.5123 151.782 15.5862C151.512 15.6601 151.276 15.7625 151.049 15.9075C150.827 16.0526 150.632 16.2374 150.485 16.4308C150.338 16.6412 150.258 16.8659 150.249 17.1246C150.249 17.4147 150.33 17.6649 150.52 17.8668C150.698 18.0773 150.928 18.2536 151.213 18.3986C151.489 18.5436 151.8 18.6659 152.125 18.7683C152.45 18.865 152.76 18.9616 153.054 19.0413C153.868 19.283 154.627 19.556 155.312 19.8631C155.996 20.1702 156.583 20.5399 157.072 20.9835C157.561 21.4186 157.944 21.9418 158.214 22.5305C158.49 23.1276 158.614 23.8272 158.596 24.6262C158.588 25.4737 158.41 26.2216 158.067 26.8983C157.716 27.5666 157.253 28.1325 156.658 28.5989C156.062 29.0595 155.352 29.4122 154.546 29.6539C153.738 29.9041 152.858 30.0236 151.92 30.0236C151.357 30.0236 150.787 29.9581 150.209 29.8387C149.622 29.7164 149.067 29.5231 148.538 29.2671C148.008 29.0084 147.519 28.6785 147.071 28.269C146.631 27.8737 146.257 27.3903 145.96 26.8329C145.822 26.6083 145.756 26.3979 145.765 26.2216C145.765 26.1078 145.796 26.0026 145.863 25.9144C145.912 25.8348 145.992 25.7438 146.09 25.6557L147.623 24.4954C147.752 24.4073 147.876 24.3675 147.991 24.3675C148.115 24.3675 148.227 24.4073 148.325 24.4954C148.423 24.5751 148.529 24.7059 148.644 24.8509H148.641Z" fill="white"/>
<path d="M165.624 10.1235C165.632 9.70549 165.836 9.49506 166.219 9.49506H178.938C179.355 9.49506 179.557 9.71402 179.551 10.1406L179.525 11.4942C179.525 11.6648 179.468 11.8098 179.353 11.9463C179.238 12.0743 179.082 12.1397 178.887 12.1397H168.198L168.091 18.8223C169.518 18.8223 170.922 18.8223 172.3 18.8309C173.686 18.8394 175.096 18.8394 176.531 18.8394C176.695 18.8394 176.841 18.8877 176.948 18.9929C177.063 19.0896 177.121 19.2517 177.121 19.4849L177.095 20.8556C177.095 21.0262 177.037 21.1627 176.939 21.2906C176.824 21.4186 176.678 21.484 176.491 21.484H168.043L167.913 29.1591C167.913 29.5373 167.692 29.7221 167.269 29.7221H165.882C165.491 29.7221 165.296 29.5373 165.304 29.1591L165.624 10.1264V10.1235ZM184.792 29.125C184.783 29.5288 184.579 29.7221 184.196 29.7221H182.801C182.384 29.7221 182.174 29.5288 182.183 29.125L182.453 13.0184C182.453 12.8421 182.52 12.697 182.632 12.5833C182.747 12.4781 182.893 12.4212 183.055 12.4212H184.45C184.645 12.4212 184.783 12.4866 184.898 12.5975C185.013 12.7198 185.062 12.8563 185.062 13.0155L184.792 29.1221V29.125ZM185.128 9.27041C185.12 9.67421 184.916 9.87611 184.524 9.87611H183.138C182.715 9.87611 182.511 9.67421 182.511 9.27041L182.537 7.87701C182.545 7.69217 182.603 7.54714 182.724 7.43339C182.839 7.32817 182.985 7.2713 183.147 7.2713H184.542C184.729 7.2713 184.875 7.32817 184.99 7.44192C185.105 7.55567 185.154 7.7007 185.154 7.87701L185.128 9.27041ZM192 14.7104C192.253 14.389 192.547 14.0734 192.863 13.7748C193.182 13.4677 193.539 13.1947 193.93 12.953C194.33 12.7198 194.762 12.5264 195.242 12.3729C195.714 12.2278 196.254 12.1539 196.847 12.1539C197.957 12.1539 198.918 12.3473 199.758 12.7255C200.589 13.1122 201.291 13.644 201.846 14.3066C202.41 14.9748 202.824 15.7568 203.109 16.6526C203.385 17.554 203.509 18.5152 203.491 19.5475L203.336 28.7923C203.336 29.1079 203.256 29.3411 203.092 29.4947C202.928 29.6482 202.723 29.7193 202.488 29.7193H201.492C201.159 29.7193 200.946 29.6539 200.857 29.5174C200.759 29.3809 200.719 29.1534 200.727 28.8321L200.883 19.5446C200.891 19.0043 200.825 18.447 200.687 17.8754C200.557 17.3123 200.319 16.7863 199.985 16.3284C199.651 15.8621 199.22 15.4895 198.665 15.1909C198.11 14.9094 197.434 14.7559 196.625 14.7559C196.111 14.7559 195.573 14.8525 195.035 15.0374C194.48 15.2308 193.973 15.4981 193.519 15.8592C193.062 16.2289 192.688 16.681 192.394 17.2128C192.084 17.7446 191.928 18.3645 191.922 19.0498L191.75 29.1164C191.741 29.5202 191.537 29.7136 191.154 29.7136H189.759C189.342 29.7136 189.132 29.5202 189.141 29.1164L189.411 13.0098C189.411 12.8335 189.478 12.6885 189.59 12.5748C189.705 12.4695 189.851 12.4127 190.013 12.4127H191.408C191.603 12.4127 191.741 12.4781 191.856 12.589C191.971 12.7113 192.02 12.8478 192.02 13.007L191.994 14.699L192 14.7104ZM220.945 27.4216C220.163 28.2207 219.257 28.8491 218.221 29.307C217.195 29.7591 216.084 29.9923 214.888 29.9923C214.079 29.9923 213.314 29.8871 212.572 29.671C211.813 29.4605 211.12 29.1563 210.475 28.761C209.822 28.3657 209.236 27.8993 208.706 27.3505C208.177 26.8017 207.728 26.2045 207.346 25.5277C206.972 24.868 206.678 24.1571 206.483 23.3921C206.279 22.6357 206.189 21.8452 206.207 21.0376C206.215 20.2157 206.336 19.4252 206.566 18.6602C206.788 17.9038 207.096 17.1929 207.504 16.5332C207.904 15.8734 208.367 15.2763 208.922 14.7274C209.469 14.1786 210.073 13.7122 210.74 13.317C211.393 12.9217 212.1 12.6231 212.851 12.4155C213.593 12.2051 214.376 12.0999 215.184 12.0999C216.383 12.0999 217.491 12.333 218.503 12.7852C219.522 13.2459 220.402 13.8743 221.161 14.6706L221.187 13.0098C221.196 12.606 221.4 12.4041 221.8 12.4041H223.186C223.609 12.4041 223.813 12.606 223.813 13.0098L223.543 29.1221C223.534 29.307 223.468 29.452 223.356 29.5572C223.241 29.671 223.094 29.7193 222.933 29.7193H221.538C221.351 29.7193 221.204 29.6624 221.089 29.543C220.974 29.4292 220.917 29.2842 220.917 29.125L220.948 27.4245L220.945 27.4216ZM221.19 21.0376C221.207 20.1759 221.061 19.3683 220.75 18.5863C220.431 17.8043 220.008 17.1275 219.461 16.5474C218.915 15.9673 218.262 15.4981 217.52 15.154C216.778 14.8071 215.987 14.6393 215.138 14.6393C214.289 14.6393 213.498 14.8099 212.756 15.154C212.006 15.5009 211.353 15.9673 210.792 16.5474C210.228 17.1275 209.782 17.8043 209.454 18.5863C209.121 19.3683 208.948 20.1731 208.934 21.0376C208.916 21.8764 209.063 22.6897 209.374 23.4632C209.676 24.2452 210.099 24.9305 210.645 25.5277C211.183 26.1249 211.827 26.5998 212.561 26.9552C213.294 27.3192 214.077 27.4955 214.925 27.4955C215.774 27.4955 216.573 27.3192 217.321 26.9552C218.081 26.5998 218.739 26.1249 219.312 25.5277C219.875 24.9305 220.321 24.2452 220.666 23.4632C221 22.6897 221.173 21.8764 221.187 21.0376H221.19ZM230.233 14.7104C230.495 14.389 230.789 14.0734 231.105 13.7748C231.424 13.4677 231.781 13.1947 232.172 12.953C232.563 12.7198 233.003 12.5264 233.478 12.3729C233.958 12.2278 234.496 12.1539 235.092 12.1539C236.193 12.1539 237.163 12.3473 238.003 12.7255C238.834 13.1122 239.527 13.644 240.091 14.3066C240.655 14.9748 241.069 15.7568 241.354 16.6526C241.624 17.554 241.753 18.5152 241.736 19.5475L241.581 28.7923C241.581 29.1079 241.5 29.3411 241.336 29.4947C241.172 29.6482 240.968 29.7193 240.732 29.7193H239.728C239.403 29.7193 239.19 29.6539 239.101 29.5174C239.004 29.3809 238.963 29.1534 238.972 28.8321L239.127 19.5446C239.136 19.0043 239.07 18.447 238.932 17.8754C238.794 17.3123 238.563 16.7863 238.23 16.3284C237.896 15.8621 237.465 15.4895 236.91 15.1909C236.354 14.9094 235.678 14.7559 234.87 14.7559C234.355 14.7559 233.817 14.8525 233.271 15.0374C232.724 15.2308 232.218 15.4981 231.764 15.8592C231.306 16.2289 230.932 16.681 230.639 17.2128C230.328 17.7446 230.173 18.3645 230.159 19.0498L229.995 29.1164C229.986 29.5202 229.782 29.7136 229.399 29.7136H228.004C227.587 29.7136 227.377 29.5202 227.386 29.1164L227.656 13.0098C227.656 12.8335 227.722 12.6885 227.834 12.5748C227.949 12.4695 228.096 12.4127 228.257 12.4127H229.652C229.848 12.4127 229.986 12.4781 230.101 12.589C230.216 12.7113 230.265 12.8478 230.265 13.007L230.233 14.699V14.7104ZM256.97 25.7865C257.027 25.7296 257.099 25.6727 257.174 25.6159C257.254 25.559 257.338 25.5107 257.427 25.4794C257.507 25.4623 257.6 25.4623 257.68 25.4794C257.769 25.5107 257.853 25.5931 257.942 25.704C258.114 25.9457 258.252 26.1476 258.365 26.3012C258.477 26.4548 258.569 26.5742 258.635 26.6709C258.71 26.7676 258.759 26.8415 258.799 26.8898C258.839 26.9552 258.874 27.0349 258.914 27.1088C258.94 27.1742 258.946 27.2624 258.931 27.342C258.905 27.4301 258.856 27.5268 258.785 27.632C258.704 27.7373 258.58 27.8567 258.416 27.979C258.025 28.2861 257.617 28.5676 257.194 28.8093C256.771 29.0681 256.331 29.2842 255.874 29.4634C255.408 29.6482 254.927 29.7932 254.421 29.8985C253.906 29.9951 253.368 30.0435 252.807 30.0435C252.008 30.0435 251.234 29.9297 250.501 29.7221C249.758 29.5117 249.057 29.1989 248.404 28.8036C247.751 28.4169 247.155 27.942 246.617 27.3932C246.088 26.8529 245.622 26.2472 245.248 25.5874C244.857 24.9192 244.564 24.2083 244.368 23.4433C244.155 22.6926 244.066 21.9049 244.075 21.0887C244.092 20.2754 244.213 19.4849 244.443 18.72C244.67 17.9635 244.989 17.2526 245.398 16.5929C245.798 15.9331 246.287 15.3274 246.833 14.7786C247.388 14.2298 247.998 13.7634 248.668 13.3681C249.33 12.9729 250.037 12.6743 250.788 12.4582C251.539 12.2477 252.304 12.1425 253.112 12.1425C253.61 12.1425 254.108 12.1823 254.605 12.279C255.103 12.3757 255.575 12.5122 256.04 12.6743C256.506 12.8449 256.938 13.044 257.338 13.2715C257.738 13.4904 258.103 13.7378 258.422 14.0051C258.488 14.0535 258.56 14.1189 258.644 14.19C258.724 14.2554 258.808 14.335 258.865 14.4146C258.914 14.5028 258.954 14.5995 258.972 14.7047C258.989 14.8099 258.963 14.9293 258.891 15.0431L257.896 16.3483C257.651 16.6554 257.381 16.6469 257.088 16.3313C256.843 16.0725 256.573 15.8564 256.265 15.6459C255.954 15.4355 255.621 15.2592 255.261 15.1142C254.91 14.9606 254.536 14.8469 254.145 14.7587C253.762 14.6791 253.38 14.6364 253.003 14.6364C252.221 14.6364 251.453 14.8071 250.705 15.1511C249.963 15.4981 249.301 15.9644 248.732 16.5616C248.153 17.1588 247.687 17.8356 247.336 18.6176C246.977 19.3911 246.799 20.2214 246.781 21.083C246.764 21.9617 246.919 22.775 247.247 23.557C247.567 24.3391 248.007 25.0073 248.568 25.5874C249.123 26.1675 249.776 26.6282 250.509 26.9666C251.243 27.3136 252.002 27.4899 252.807 27.4899C253.305 27.4899 253.745 27.4415 254.154 27.3363C254.553 27.2481 254.913 27.1259 255.247 26.9581C255.572 26.796 255.874 26.6197 256.158 26.4093C256.443 26.2074 256.714 26.0055 256.981 25.7808L256.97 25.7865ZM274.303 25.7637C274.383 25.6898 274.467 25.6272 274.573 25.5533C274.662 25.4879 274.76 25.4652 274.867 25.4652C274.99 25.4652 275.12 25.5448 275.249 25.7069C275.422 25.9486 275.56 26.1505 275.672 26.304C275.784 26.4576 275.876 26.577 275.948 26.6737C276.014 26.7704 276.063 26.8443 276.103 26.8927C276.144 26.9496 276.178 27.0064 276.21 27.0633C276.227 27.1287 276.241 27.1913 276.241 27.2652C276.241 27.3619 276.201 27.4671 276.118 27.5809C276.043 27.6946 275.914 27.8311 275.718 27.9847C275.318 28.2918 274.918 28.5733 274.496 28.815C274.073 29.0738 273.633 29.2899 273.175 29.4691C272.709 29.6539 272.229 29.7989 271.723 29.9041C271.208 30.0008 270.67 30.0492 270.109 30.0492C269.309 30.0492 268.536 29.9354 267.802 29.7278C267.06 29.5174 266.358 29.2046 265.705 28.8093C265.052 28.4226 264.457 27.9477 263.919 27.3989C263.39 26.8586 262.924 26.2529 262.55 25.5931C262.159 24.9249 261.865 24.2139 261.67 23.449C261.457 22.6983 261.368 21.9106 261.376 21.0944C261.393 20.2811 261.506 19.4906 261.727 18.7256C261.94 17.9607 262.242 17.2498 262.625 16.59C263.007 15.9218 263.473 15.3246 264.002 14.7672C264.54 14.2184 265.144 13.7606 265.812 13.3653C266.488 12.9786 267.198 12.68 267.972 12.4639C268.737 12.2534 269.554 12.1482 270.411 12.1482C271.078 12.1482 271.749 12.2221 272.416 12.3729C273.077 12.535 273.705 12.7511 274.309 13.0497C274.921 13.3397 275.482 13.7037 276.011 14.1473C276.532 14.5824 277.007 15.0829 277.421 15.6459C277.976 16.4279 278.39 17.3237 278.661 18.3133C278.914 19.3114 279.029 20.466 278.986 21.7627C278.977 22.1807 278.781 22.3997 278.382 22.3997H264.186C264.325 23.1248 264.586 23.8016 264.952 24.4158C265.326 25.0358 265.774 25.5761 266.298 26.0367C266.827 26.4889 267.414 26.85 268.067 27.1088C268.711 27.3676 269.396 27.5041 270.097 27.5041C270.595 27.5041 271.035 27.4557 271.444 27.3505C271.843 27.2624 272.209 27.1401 272.537 26.9723C272.87 26.8102 273.172 26.6339 273.457 26.4235C273.733 26.2216 274.004 26.0197 274.271 25.795L274.297 25.7694L274.303 25.7637ZM267.095 15.6772C266.401 16.1379 265.806 16.7265 265.3 17.4261C264.785 18.1285 264.442 18.9105 264.247 19.7465H276.42C276.331 18.9958 276.118 18.3048 275.767 17.6905C275.407 17.0791 274.959 16.5531 274.429 16.1095C273.883 15.6744 273.27 15.3274 272.586 15.0943C271.901 14.8526 271.191 14.7388 270.457 14.7388C269.87 14.7388 269.292 14.8127 268.72 14.9635C268.142 15.1255 267.604 15.3502 267.089 15.6715L267.095 15.6772Z" fill="white"/>
</g>
<defs>
<clipPath id="clip0_195_2012">
<rect width="279" height="35" fill="white"/>
</clipPath>
</defs>
</svg>
