<svg width="32" height="33" viewBox="0 0 32 33" fill="none" xmlns="http://www.w3.org/2000/svg">
<path d="M23.5956 16.8733V16.9044C23.4889 16.78 23.3526 16.6822 23.1867 16.6111C23.0207 16.537 22.8444 16.5 22.6578 16.5C22.4681 16.5 22.2963 16.537 22.1422 16.6111C21.9852 16.6822 21.8444 16.7696 21.72 16.8733L19.5956 19.0333C19.1156 18.8644 18.4741 18.6081 17.6711 18.2644C16.8681 17.9207 16.1763 17.4674 15.5956 16.9044C15.0326 16.3237 14.5793 15.6319 14.2356 14.8289C13.8919 14.0259 13.6356 13.3844 13.4667 12.9044L15.5956 10.78C15.72 10.6556 15.8178 10.5148 15.8889 10.3578C15.963 10.2037 16 10.0319 16 9.84222C16 9.65555 15.963 9.47926 15.8889 9.31333C15.8178 9.14741 15.72 9.01111 15.5956 8.90444L10.28 3.56222C10.1556 3.43778 10.0148 3.33852 9.85778 3.26444C9.7037 3.19333 9.53185 3.15778 9.34222 3.15778C9.15556 3.15778 8.97926 3.19333 8.81333 3.26444C8.64741 3.33852 8.51111 3.43778 8.40444 3.56222L4.78222 7.18889C4.53037 7.43778 4.33778 7.72963 4.20444 8.06444C4.06815 8.3963 4 8.74 4 9.09555C4 9.57259 4.05185 10.3015 4.15556 11.2822C4.28 12.2807 4.53481 13.4156 4.92 14.6867C5.30815 15.9578 5.87704 17.3015 6.62667 18.7178C7.39704 20.1341 8.42815 21.4881 9.72 22.78C11.0326 24.0719 12.3867 25.103 13.7822 25.8733C15.1985 26.6259 16.5422 27.1948 17.8133 27.58C19.0844 27.9652 20.2193 28.22 21.2178 28.3444C22.2193 28.4481 22.9481 28.5 23.4044 28.5H23.4667C23.8015 28.5 24.1304 28.4319 24.4533 28.2956C24.7763 28.1622 25.0622 27.9696 25.3111 27.7178L28.9378 24.1267C29.0622 23.9993 29.1615 23.8526 29.2356 23.6867C29.3067 23.5207 29.3422 23.3444 29.3422 23.1578C29.3422 22.9889 29.3067 22.8215 29.2356 22.6556C29.1615 22.4896 29.0622 22.3444 28.9378 22.22L23.5956 16.8733ZM23.4356 25.8422C23.0207 25.8422 22.3867 25.7904 21.5333 25.6867C20.6563 25.583 19.6711 25.3652 18.5778 25.0333C17.4844 24.6985 16.3333 24.2081 15.1244 23.5622C13.8948 22.8956 12.7185 22.0096 11.5956 20.9044C10.4904 19.7815 9.60444 18.6052 8.93778 17.3756C8.29185 16.1667 7.80148 15.0096 7.46667 13.9044C7.13481 12.8022 6.91704 11.823 6.81333 10.9667C6.70963 10.0926 6.65778 9.45852 6.65778 9.06444L9.34222 6.37555L12.7822 9.84222L11.0622 11.5622C10.9378 11.6867 10.8385 11.8274 10.7644 11.9844C10.6933 12.1415 10.6578 12.3133 10.6578 12.5C10.6578 12.5415 10.6622 12.5889 10.6711 12.6422C10.683 12.6926 10.6889 12.7385 10.6889 12.78C10.7096 12.8422 10.9437 13.583 11.3911 15.0022C11.8385 16.4185 12.6148 17.6778 13.72 18.78C14.8222 19.8852 16.083 20.6615 17.5022 21.1089C18.9185 21.5563 19.6578 21.7904 19.72 21.8111C19.7615 21.8111 19.8074 21.817 19.8578 21.8289C19.9111 21.8378 19.9585 21.8422 20 21.8422C20.1867 21.8422 20.3585 21.8067 20.5156 21.7356C20.6726 21.6615 20.8133 21.5622 20.9378 21.4378L22.6578 19.7178L26.1244 23.1578L23.4356 25.8422Z" fill="white"/>
</svg>
