<svg width="32" height="33" viewBox="0 0 32 33" fill="none" xmlns="http://www.w3.org/2000/svg">
<path d="M24.5333 8.00222C23.4489 6.91778 22.1822 6.06296 20.7333 5.43778C19.2874 4.81259 17.7407 4.5 16.0933 4.5C16.0933 4.5 16.0889 4.5 16.08 4.5C16.0681 4.5 16.0622 4.5 16.0622 4.5C14.4178 4.5 12.8652 4.81259 11.4044 5.43778C9.96741 6.06296 8.70815 6.91778 7.62667 8.00222C6.54222 9.0837 5.67704 10.3533 5.03111 11.8111C4.40593 13.2719 4.09333 14.8244 4.09333 16.4689C4.09333 17.5326 4.22963 18.5696 4.50222 19.58C4.77185 20.5904 5.16741 21.5533 5.68889 22.4689L4 28.6556L10.3422 27.0022C11.1778 27.4585 12.08 27.8126 13.0489 28.0644C14.0178 28.3133 15.0222 28.4378 16.0622 28.4378C17.7096 28.4378 19.2622 28.1252 20.72 27.5C22.1778 26.8748 23.4489 26.02 24.5333 24.9356C25.6148 23.8541 26.4681 22.5844 27.0933 21.1267C27.7185 19.6659 28.0311 18.1133 28.0311 16.4689C28.0311 16.4689 28.0311 16.463 28.0311 16.4511C28.0311 16.4422 28.0311 16.4378 28.0311 16.4378C28.0311 14.7904 27.7185 13.2437 27.0933 11.7978C26.4681 10.3489 25.6148 9.0837 24.5333 8.00222ZM16.0622 26.4378C15.1259 26.4378 14.2252 26.3133 13.36 26.0644C12.4948 25.8126 11.6978 25.4585 10.9689 25.0022L11 25.0333L10.6267 24.8111L6.87556 25.8111L7.87556 22.1267L7.65778 21.7489C7.17778 20.9993 6.80296 20.177 6.53333 19.2822C6.26074 18.3844 6.12444 17.4467 6.12444 16.4689C6.12444 15.0941 6.38519 13.8022 6.90667 12.5933C7.42815 11.3844 8.14222 10.3326 9.04889 9.43778C9.95259 8.54296 11.0089 7.83481 12.2178 7.31333C13.4267 6.79185 14.7081 6.53111 16.0622 6.53111C16.083 6.53111 16.0933 6.53111 16.0933 6.53111C17.4681 6.53111 18.7541 6.79185 19.9511 7.31333C21.1511 7.83481 22.1985 8.54296 23.0933 9.43778C24.0089 10.3326 24.7274 11.3844 25.2489 12.5933C25.7704 13.8022 26.0311 15.0837 26.0311 16.4378C26.0311 16.4585 26.0311 16.4689 26.0311 16.4689C26.0311 17.8437 25.76 19.1356 25.2178 20.3444C24.6963 21.5533 23.9881 22.6111 23.0933 23.5178C22.1985 24.4215 21.1467 25.1341 19.9378 25.6556C18.7289 26.177 17.437 26.4378 16.0622 26.4378ZM21.5333 18.9667C21.6785 19.0526 21.797 19.1163 21.8889 19.1578C21.9837 19.1993 22.0519 19.2511 22.0933 19.3133C22.1348 19.3756 22.1511 19.5415 22.1422 19.8111C22.1304 20.0837 22.0622 20.3963 21.9378 20.7489C21.8133 21.1044 21.517 21.417 21.0489 21.6867C20.5778 21.9593 20.197 22.1163 19.9067 22.1578C19.6578 22.1993 19.3719 22.22 19.0489 22.22C18.7259 22.22 18.3867 22.1681 18.0311 22.0644C17.803 21.9785 17.5481 21.8896 17.2667 21.7978C16.9852 21.703 16.6667 21.5726 16.3111 21.4067C14.8119 20.7607 13.6044 19.8748 12.6889 18.7489C11.7704 17.6259 11.28 17.0111 11.2178 16.9044C11.1348 16.8007 10.9111 16.4422 10.5467 15.8289C10.1822 15.2126 10 14.54 10 13.8111C10 13.0822 10.1407 12.5207 10.4222 12.1267C10.7037 11.7296 10.9067 11.4585 11.0311 11.3133C11.1348 11.2096 11.2548 11.1207 11.3911 11.0467C11.5274 10.9726 11.6785 10.9356 11.8444 10.9356C11.8444 10.9356 11.8489 10.9356 11.8578 10.9356C11.8696 10.9356 11.8756 10.9356 11.8756 10.9356C11.9793 10.9356 12.0726 10.9356 12.1556 10.9356C12.2385 10.9356 12.3215 10.9356 12.4044 10.9356C12.4904 10.9563 12.5956 10.9785 12.72 11.0022C12.8444 11.023 12.9585 11.1785 13.0622 11.4689C13.1867 11.7593 13.3644 12.1815 13.5956 12.7356C13.8237 13.2867 13.9585 13.6037 14 13.6867C14.0415 13.7489 14.0681 13.8274 14.08 13.9222C14.0889 14.017 14.0726 14.1163 14.0311 14.22C13.9689 14.303 13.9215 14.38 13.8889 14.4511C13.8593 14.5252 13.803 14.6141 13.72 14.7178C13.6578 14.8007 13.5852 14.8896 13.5022 14.9844C13.4163 15.0793 13.3422 15.1578 13.28 15.22C13.197 15.303 13.1348 15.3904 13.0933 15.4822C13.0519 15.577 13.0726 15.697 13.1556 15.8422C13.2385 15.9904 13.4267 16.2719 13.72 16.6867C14.0104 17.1044 14.3748 17.5104 14.8133 17.9044C15.3763 18.4259 15.8815 18.7859 16.3289 18.9844C16.7763 19.183 17.0726 19.3237 17.2178 19.4067C17.363 19.4689 17.483 19.4941 17.5778 19.4822C17.6726 19.4733 17.7719 19.417 17.8756 19.3133C17.9585 19.2304 18.1096 19.0526 18.3289 18.78C18.5481 18.5104 18.7096 18.303 18.8133 18.1578C18.917 18.0096 19.0207 17.9356 19.1244 17.9356C19.2281 17.9356 19.3422 17.9578 19.4667 18.0022C19.6148 18.0437 19.96 18.1993 20.5022 18.4689C21.0415 18.7385 21.3852 18.9044 21.5333 18.9667Z" fill="white"/>
</svg>
