<svg width="81" height="80" viewBox="0 0 81 80" fill="none" xmlns="http://www.w3.org/2000/svg">
<path d="M61.624 40.8494C58.5005 38.2841 55.3838 35.7104 52.2637 33.1401C48.555 30.0826 44.8413 27.0303 41.1427 23.9593C40.856 23.7217 40.7009 23.7166 40.4226 23.9492C36.1422 27.5157 31.8516 31.0703 27.5645 34.6283C24.8947 36.8447 22.23 39.0679 19.5517 41.2741C19.3055 41.4764 19.2347 41.6888 19.2364 41.9803C19.2566 44.4243 19.2701 46.8665 19.2836 49.3104C19.3072 53.5258 19.3342 57.7394 19.3494 61.9548C19.3561 63.888 19.3359 65.8213 19.3291 67.7545C19.3274 68.3107 19.3291 68.3107 19.889 68.3107C26.787 68.3107 33.6832 68.3107 40.5811 68.3107C40.5811 68.2938 40.5811 68.277 40.5811 68.2618C47.5195 68.2618 54.4579 68.2584 61.3963 68.2702C61.7893 68.2702 61.9073 68.1624 61.9073 67.7612C61.9039 59.0288 61.9124 50.2964 61.9242 41.5623C61.9242 41.2674 61.8618 41.0466 61.624 40.8511V40.8494ZM29.956 41.8489C30.1027 41.8388 30.2342 41.8219 30.3658 41.8219C33.0845 41.8219 35.8032 41.8286 38.5202 41.8118C38.8946 41.8101 38.9772 41.9348 38.9755 42.2837C38.9637 44.9316 38.9637 47.5795 38.9755 50.2273C38.9755 50.583 38.903 50.7229 38.5033 50.7195C35.7981 50.7009 33.0946 50.7094 30.3894 50.7094C30.2545 50.7094 30.1196 50.7094 29.9526 50.7094V41.8472L29.956 41.8489ZM38.478 63.3032C35.7863 63.2897 33.0929 63.288 30.4012 63.3049C30.0015 63.3082 29.9172 63.1633 29.9189 62.8043C29.9307 60.1143 29.9324 57.4243 29.9222 54.7326C29.9222 54.4073 30.042 54.3466 30.3337 54.3483C31.7066 54.3601 37.1743 54.3618 38.5337 54.3449C38.8777 54.3415 38.9789 54.4511 38.9772 54.7916C38.9654 57.4681 38.9637 60.1446 38.9772 62.8211C38.9789 63.2122 38.8457 63.3032 38.4763 63.3015L38.478 63.3032ZM42.7213 41.8135C45.413 41.827 48.1047 41.8219 50.7981 41.8185C51.0697 41.8185 51.2586 41.8185 51.2569 42.1961C51.2417 44.9282 51.2484 47.6587 51.2484 50.3908C51.2484 50.4717 51.2349 50.5543 51.2231 50.6891C51.0595 50.6976 50.9246 50.7111 50.7914 50.7111C48.0997 50.7111 45.4063 50.7043 42.7146 50.7212C42.3368 50.7229 42.2238 50.6167 42.2255 50.2391C42.239 47.5896 42.239 44.9417 42.2255 42.2922C42.2238 41.9045 42.357 41.8118 42.723 41.8135H42.7213ZM51.2602 62.8026C51.2552 63.2037 51.1388 63.3065 50.7475 63.3049C48.071 63.288 45.3945 63.2897 42.7163 63.3049C42.3317 63.3065 42.2221 63.1886 42.2238 62.8144C42.2373 60.153 42.2373 57.4917 42.2238 54.8303C42.2221 54.4477 42.3452 54.3415 42.718 54.3466C44.0638 54.3668 49.4438 54.3651 50.7897 54.3466C51.1422 54.3415 51.267 54.4292 51.2585 54.8017C51.2332 55.8989 51.2788 61.5503 51.2602 62.8026Z" fill="#0077C4"/>
<path d="M71.6471 35.997C71.3638 35.2065 70.7667 34.6739 70.136 34.1581C66.7022 31.3518 63.2735 28.5371 59.8464 25.7224C57.2509 23.5903 54.657 21.4548 52.0614 19.3243C49.3494 17.0962 46.6206 14.8882 43.9272 12.6364C42.5848 11.2948 39.3787 10.2414 35.6228 13.9932C32.9597 16.1725 30.3034 18.3636 27.6438 20.548C24.7733 22.9043 21.9028 25.2605 19.029 27.6151C16.2614 29.8838 13.487 32.1423 10.7278 34.4211C9.63666 35.3228 9.13745 36.4571 9.40055 37.9049C9.78845 40.0421 12.1665 41.2876 14.1397 40.3994C14.8565 40.0775 15.4889 39.5364 16.1079 39.0325C19.7053 36.0964 23.2875 33.1401 26.8747 30.1939C29.3118 28.1916 31.7522 26.1909 34.1926 24.192C36.2333 22.5217 38.2774 20.8581 40.3147 19.1828C40.5221 19.0108 40.6587 18.999 40.8746 19.1794C41.5863 19.7777 42.3217 20.3474 43.0401 20.9356C45.1112 22.6312 47.1789 24.3302 49.2466 26.0291C51.886 28.1949 54.5288 30.3591 57.1665 32.5266C60.0994 34.9368 63.0306 37.3487 65.9601 39.764C66.854 40.5005 67.8507 40.8174 69.0144 40.6151C71.1546 40.2427 72.3841 38.0617 71.6437 35.997H71.6471Z" fill="#0077C4"/>
<path d="M44.3793 47.084C45.7352 47.0874 47.0929 47.1008 48.4489 47.0823C49.9465 47.0621 49.6379 47.3638 49.6767 45.7811C49.6817 45.5451 49.5957 45.4238 49.3461 45.4255C47.6056 45.4288 45.8651 45.4238 44.1246 45.4373C44.0217 45.4373 43.8362 45.5805 43.8294 45.6665C43.7991 46.1131 43.8159 46.5632 43.8159 47.0435C44.0301 47.0604 44.2055 47.084 44.3793 47.084Z" fill="#0077C4"/>
<path d="M49.191 59.2816C47.7794 59.2968 46.366 59.2884 44.9544 59.2867C43.7856 59.2867 43.7958 59.2867 43.8042 60.4631C43.8059 60.7665 43.8936 60.8727 44.2022 60.866C45.0387 60.8491 45.8753 60.8609 46.7118 60.8609C47.3425 60.8609 47.9733 60.8609 48.6041 60.8609C49.6885 60.8609 49.6716 60.8609 49.6868 59.7772C49.6919 59.3929 49.5637 59.2783 49.1927 59.2816H49.191Z" fill="#0077C4"/>
<path d="M44.2695 58.3227C45.7368 58.3058 47.2024 58.3159 48.6697 58.3159C49.3432 58.3159 49.6788 57.9856 49.6765 57.3249C49.6754 56.9552 49.4831 56.7698 49.0997 56.7687C47.5228 56.7687 45.9476 56.7687 44.3707 56.7687C44.2088 56.7687 44.0469 56.7821 43.8108 56.7939C43.8108 57.1799 43.8344 57.5221 43.804 57.8608C43.7703 58.2316 43.917 58.3277 44.2712 58.3227H44.2695Z" fill="#0077C4"/>
<path d="M33.1976 47.1278C33.4995 47.1211 33.6159 47.2306 33.6075 47.534C33.5923 48.0683 33.6125 48.606 33.6024 49.1403C33.5973 49.4251 33.7053 49.538 33.992 49.5144C34.2247 49.4959 34.4592 49.5111 34.6919 49.5111C35.0989 49.5111 35.303 49.3139 35.3041 48.9195C35.3041 48.3447 35.3041 47.77 35.3041 47.1582C35.4896 47.148 35.6364 47.1346 35.7831 47.1329C36.3059 47.1295 36.827 47.1211 37.3499 47.1362C37.618 47.1447 37.7277 47.0452 37.7209 46.7823C37.7125 46.4385 37.7142 46.0963 37.7209 45.7525C37.726 45.4946 37.6265 45.3732 37.3549 45.3884C37.0952 45.4036 35.6296 45.4929 35.3918 45.2822C35.1861 45.1019 35.3142 44.5373 35.3058 44.1429C35.2974 43.7889 35.3058 43.435 35.3058 43.0271C34.8268 43.0271 34.4035 43.0422 33.9819 43.022C33.685 43.0068 33.5973 43.1349 33.6041 43.408C33.6142 43.8883 33.6075 44.3687 33.6041 44.8491C33.603 45.2075 33.4169 45.3873 33.0458 45.3884C32.4437 45.3884 31.8433 45.3884 31.2261 45.3884V47.1295C31.9091 47.1295 32.5551 47.1396 33.1993 47.1244L33.1976 47.1278Z" fill="#0077C4"/>
<path d="M37.2318 60.3435C36.7039 59.8767 36.1979 59.3862 35.6667 58.8907C35.8505 58.6918 35.95 58.5805 36.0546 58.4743C36.4593 58.0665 36.8776 57.6687 37.2655 57.2456C37.3414 57.1631 37.3734 56.9254 37.3127 56.8496C36.9973 56.4568 36.6465 56.0928 36.235 55.6394C35.6667 56.2428 35.1792 56.7366 34.7222 57.2558C34.4996 57.5086 34.3613 57.4917 34.137 57.2541C33.6647 56.7518 33.1588 56.2799 32.6208 55.7506C32.2767 56.1096 31.9816 56.4518 31.651 56.7518C31.4301 56.9524 31.4318 57.0687 31.6544 57.2642C32.1924 57.7395 32.7068 58.2418 33.2583 58.7592C32.6511 59.3525 32.1401 59.8615 31.6156 60.357C31.4588 60.5053 31.3947 60.6166 31.5684 60.7969C31.9107 61.1509 32.2396 61.5166 32.6528 61.9616C33.2971 61.2806 33.8604 60.6874 34.4861 60.025C35.0764 60.6671 35.6262 61.2638 36.2468 61.938C36.6229 61.5267 36.9113 61.1829 37.2318 60.8728C37.4409 60.6722 37.4578 60.5441 37.2318 60.3435Z" fill="#0077C4"/>
</svg>
