<svg width="81" height="80" viewBox="0 0 81 80" fill="none" xmlns="http://www.w3.org/2000/svg">
<path d="M40.7626 35.2998C43.6922 35.2998 46.6233 35.2998 49.5529 35.2998C49.6725 35.2998 49.792 35.2886 49.9186 35.283V19.4872H49.5304C47.6303 19.4872 45.7288 19.4872 43.8287 19.4872C42.027 19.4858 40.6726 18.1379 40.6669 16.3402C40.6627 14.5537 40.6669 12.7672 40.6669 10.9793V10.2611C40.5263 10.2527 40.4279 10.24 40.328 10.24C32.7374 10.24 25.1467 10.24 17.5547 10.2428C16.196 10.2428 15.22 11.2253 15.22 12.5761C15.22 26.6767 15.22 40.7787 15.22 54.8793C15.22 56.2695 16.1975 57.2477 17.5941 57.2477C24.4041 57.2505 31.2142 57.2477 38.0256 57.2548C38.2943 57.2548 38.373 57.1859 38.3702 56.916C38.3576 55.6046 38.3646 54.2918 38.3632 52.9804C38.3632 52.8834 38.3477 52.7865 38.3379 52.6642H28.8471C28.5532 52.6642 28.2592 52.674 27.9653 52.6557C27.6404 52.6347 27.4181 52.4449 27.3127 52.1441C27.2072 51.8419 27.2438 51.5243 27.5082 51.3458C27.7163 51.2052 28.0004 51.111 28.2522 51.1096C31.4758 51.0942 34.6994 51.0998 37.9244 51.0998H38.3379V48.1565C38.2141 48.1495 38.1142 48.1383 38.0144 48.1383C34.8006 48.1383 31.5883 48.1383 28.3759 48.1383C28.2184 48.1383 28.0581 48.1397 27.902 48.1158C27.4828 48.0497 27.217 47.673 27.2775 47.2528C27.345 46.7889 27.6699 46.5711 28.2859 46.5711C31.5095 46.5725 34.7345 46.5739 37.9581 46.5739C38.0875 46.5739 38.2169 46.557 38.3365 46.55V43.6208H37.8358C34.6558 43.6208 31.4772 43.6208 28.2986 43.618C28.12 43.618 27.9329 43.6053 27.7655 43.5533C27.4477 43.4549 27.2466 43.1204 27.2676 42.7845C27.2873 42.4626 27.5166 42.159 27.8218 42.0873C27.9737 42.0522 28.1354 42.0578 28.2944 42.0578C31.4955 42.0578 34.698 42.0578 37.8991 42.0578C38.2094 42.0578 38.3646 41.8971 38.3646 41.5757C38.3646 40.2868 38.3646 38.9979 38.3646 37.709C38.3646 36.2626 39.3238 35.304 40.764 35.304L40.7626 35.2998ZM23.7332 52.66C23.5771 52.6614 23.421 52.6628 23.2649 52.6628C23.0033 52.6628 22.7417 52.6614 22.4801 52.6614C22.3493 52.6614 22.2185 52.6614 22.0877 52.6628C21.7895 52.6628 21.4913 52.6656 21.1932 52.66C20.7248 52.6501 20.3831 52.3114 20.3859 51.8785C20.3887 51.4652 20.7248 51.111 21.1707 51.1026C22.0399 51.0871 22.9091 51.0885 23.7782 51.1026C24.2382 51.1096 24.587 51.4863 24.5701 51.9038C24.5518 52.3381 24.21 52.6515 23.7332 52.6586V52.66ZM23.6995 48.134C23.293 48.1411 22.8866 48.134 22.4801 48.134C22.0849 48.1354 21.6897 48.1383 21.2944 48.134C20.7473 48.1312 20.3817 47.8122 20.3873 47.3469C20.3929 46.8929 20.7459 46.5696 21.2719 46.5668C22.0849 46.5612 22.8978 46.5612 23.7107 46.5711C24.2339 46.5781 24.5827 46.9168 24.5701 47.375C24.5574 47.8192 24.217 48.12 23.6995 48.1312V48.134ZM23.819 43.6053C22.9273 43.6292 22.0356 43.6292 21.144 43.6081C20.6967 43.5969 20.376 43.2216 20.3873 42.807C20.3999 42.3853 20.7319 42.0648 21.1875 42.055C21.6165 42.0465 22.0455 42.0536 22.4745 42.0536C22.9034 42.0536 23.3324 42.0479 23.7614 42.055C24.2128 42.0634 24.5504 42.3811 24.5687 42.7999C24.5884 43.2118 24.2677 43.5927 23.819 43.6039V43.6053ZM23.7853 39.078C23.3451 39.0892 22.9048 39.0808 22.4646 39.0808C22.0469 39.0808 21.6292 39.0864 21.2115 39.0808C20.7431 39.0738 20.3985 38.7491 20.3873 38.3134C20.3746 37.8833 20.7192 37.5305 21.1875 37.5248C22.0567 37.515 22.9259 37.5136 23.7951 37.5248C24.2339 37.5305 24.5729 37.8875 24.5715 38.3049C24.5701 38.7182 24.2227 39.0681 23.7867 39.0794L23.7853 39.078ZM35.3759 39.0808C34.8527 39.0808 34.3295 39.0808 33.8063 39.0808C33.1213 39.0808 32.4364 39.0808 31.7514 39.0808C31.3998 39.0808 31.0482 39.0808 30.6966 39.0808C29.8176 39.0808 28.9385 39.0808 28.0581 39.078C27.6558 39.0766 27.3633 38.8264 27.2873 38.4525C27.2128 38.0927 27.3886 37.7329 27.7276 37.5923C27.8485 37.5417 27.9892 37.522 28.1214 37.522C30.5391 37.5178 32.9554 37.5178 35.373 37.522C35.9005 37.522 36.2563 37.8425 36.2563 38.2993C36.2563 38.7589 35.9005 39.0808 35.3773 39.0808H35.3759ZM35.1157 34.3651C34.4532 34.3651 34.1705 34.0742 34.1705 33.4093C34.1705 31.6229 34.1705 29.8364 34.1705 28.0499V27.5917H30.9793V27.9979C30.9793 29.7956 30.9793 31.5933 30.9793 33.3911C30.9793 34.0924 30.7177 34.3623 30.0271 34.3637C28.5447 34.3665 27.0637 34.3665 25.5813 34.3651C24.8907 34.3651 24.6151 34.0924 24.6151 33.3981C24.6137 30.8203 24.6151 28.2411 24.6151 25.6633V25.2781C24.113 25.2781 23.6306 25.2908 23.1496 25.2725C22.9527 25.2655 22.7333 25.236 22.5673 25.139C22.1172 24.8762 22.0891 24.3097 22.4885 23.8894C23.2297 23.1122 23.9765 22.3405 24.722 21.566C27.0989 19.0979 29.4744 16.6283 31.8513 14.1615C32.3984 13.5951 32.7627 13.5979 33.307 14.1615C34.0046 14.884 34.7008 15.6065 35.4223 16.3528C35.6445 15.8862 36.0271 15.8215 36.4616 15.8299C37.2197 15.8454 37.9778 15.8299 38.7359 15.837C39.3632 15.844 39.6402 16.1307 39.6417 16.7604C39.6417 17.9931 39.636 19.2258 39.6515 20.4585C39.6529 20.6173 39.7317 20.8113 39.8414 20.9265C40.7556 21.8992 41.6796 22.8592 42.6121 23.8164C42.8892 24.1003 43.0396 24.4081 42.8849 24.7918C42.726 25.1854 42.3885 25.281 41.9975 25.2753C41.5249 25.2683 41.0537 25.2739 40.5418 25.2739V26.6233C40.5418 28.8848 40.5418 31.1464 40.5418 33.4079C40.5418 34.0756 40.2591 34.3595 39.598 34.3609C38.1044 34.3609 36.6107 34.3623 35.1185 34.3609L35.1157 34.3651Z" fill="#0077C4"/>
<path d="M64.5655 36.8628C56.6922 36.8628 48.8189 36.8628 40.9455 36.8628C40.1227 36.8628 39.9216 37.0582 39.9216 37.879V68.7832C39.9216 69.4677 40.1453 69.6926 40.8386 69.6926C48.7907 69.6926 56.7428 69.6926 64.6963 69.6926C65.3559 69.6926 65.5838 69.4578 65.5838 68.7888V37.886C65.5838 37.0624 65.3841 36.8628 64.5669 36.8628H64.5655ZM48.4166 67.2483C48.4138 67.7993 48.11 68.1071 47.5545 68.1127C46.7851 68.1211 46.0158 68.1141 45.2465 68.1141C44.4771 68.1141 43.7767 68.1169 43.0411 68.1141C42.4265 68.1113 42.1213 67.8077 42.1185 67.1977C42.1143 66.3389 42.1129 65.4801 42.1171 64.6199C42.1199 64.0352 42.4364 63.7231 43.0257 63.7217C44.5193 63.7189 46.013 63.7189 47.5052 63.7217C48.1283 63.7217 48.4166 64.0141 48.418 64.6368C48.4208 65.5068 48.4222 66.3782 48.418 67.2483H48.4166ZM48.4166 61.4138C48.4152 61.9985 48.1213 62.2965 47.546 62.2979C46.0411 62.3007 44.5376 62.3007 43.0327 62.2979C42.4153 62.2979 42.1199 61.9999 42.1157 61.3801C42.1115 60.5213 42.1115 59.6625 42.1157 58.8022C42.1185 58.2288 42.4195 57.9308 42.9975 57.9252C43.7556 57.9196 44.5123 57.9252 45.2704 57.9252C46.0284 57.9252 46.7865 57.921 47.5432 57.9252C48.1325 57.928 48.4124 58.2091 48.4152 58.8008C48.4194 59.6709 48.4194 60.5423 48.4152 61.4124L48.4166 61.4138ZM48.418 55.6158C48.4152 56.1893 48.1142 56.4985 47.5404 56.5013C46.0242 56.507 44.5095 56.5056 42.9919 56.5013C42.449 56.5013 42.1213 56.1809 42.1171 55.6383C42.1087 54.757 42.1101 53.8743 42.1171 52.9916C42.1227 52.4182 42.4335 52.1132 43.0046 52.1104C43.7626 52.1061 44.5207 52.1104 45.2788 52.1104C46.0369 52.1104 46.7725 52.1075 47.5193 52.1104C48.1199 52.1132 48.4152 52.4069 48.418 53.0043C48.4222 53.8743 48.4222 54.7458 48.418 55.6158ZM55.8947 67.2188C55.8933 67.8133 55.5937 68.1113 54.9946 68.1141C54.2478 68.1169 53.501 68.1141 52.7555 68.1141C52.0087 68.1141 51.2619 68.1155 50.515 68.1141C49.9131 68.1113 49.6135 67.8246 49.6065 67.2244C49.5952 66.3544 49.5924 65.4829 49.6023 64.6129C49.6093 64.0099 49.9074 63.7231 50.5108 63.7217C52.0031 63.7189 53.4967 63.7189 54.9904 63.7217C55.612 63.7217 55.8933 64.0127 55.8961 64.6424C55.899 65.5012 55.899 66.36 55.8961 67.2202L55.8947 67.2188ZM55.8961 61.4531C55.8933 61.9929 55.5923 62.2979 55.0565 62.2993C53.5291 62.3035 52.0031 62.3035 50.4757 62.2993C49.9145 62.2993 49.6107 62.0055 49.6037 61.4461C49.5938 60.5536 49.5938 59.6596 49.6037 58.7671C49.6093 58.2218 49.906 57.9322 50.4475 57.928C51.2169 57.921 51.9862 57.9266 52.7541 57.9266C53.5122 57.9266 54.2703 57.9238 55.0269 57.9266C55.5994 57.9294 55.8877 58.2077 55.8919 58.7755C55.8975 59.6681 55.8975 60.562 55.8919 61.4545L55.8961 61.4531ZM55.8947 55.6046C55.8891 56.2104 55.598 56.4971 54.9974 56.5013C54.2506 56.5056 53.5052 56.5013 52.7583 56.5013C52.0003 56.5013 51.2436 56.5056 50.4855 56.4999C49.9187 56.4957 49.6177 56.2104 49.6093 55.651C49.5952 54.757 49.5952 53.8645 49.6037 52.972C49.6093 52.4168 49.9215 52.1132 50.4729 52.1132C51.989 52.1089 53.5038 52.1089 55.0199 52.1132C55.5867 52.1132 55.8891 52.4069 55.8933 52.9621C55.9004 53.8434 55.9004 54.7261 55.8933 55.6074L55.8947 55.6046ZM57.0916 52.9663C57.0944 52.4125 57.394 52.1146 57.9566 52.1104C58.7259 52.1047 59.4953 52.1104 60.2632 52.1104C61.0311 52.1104 61.7568 52.1075 62.5023 52.1104C63.062 52.1132 63.3714 52.4055 63.3785 52.9621C63.3897 53.8659 63.3897 54.7711 63.3813 55.6763C63.3757 56.1809 63.0508 56.4985 62.5416 56.5013C61.003 56.5084 59.4643 56.5098 57.9271 56.5013C57.3926 56.4985 57.0916 56.1809 57.0888 55.6468C57.0846 54.7528 57.086 53.8603 57.0888 52.9677L57.0916 52.9663ZM57.0902 58.7812C57.093 58.2147 57.3785 57.9294 57.9496 57.9266C58.7175 57.9224 59.4868 57.9266 60.2561 57.9266C61.003 57.9266 61.7484 57.9238 62.4952 57.928C63.1056 57.9322 63.3799 58.2175 63.3799 58.8275C63.3799 59.6751 63.3827 60.5227 63.3813 61.3702C63.3813 62.0126 63.0972 62.2965 62.4474 62.2979C60.9551 62.3007 59.4615 62.3007 57.9692 62.2979C57.387 62.2979 57.0916 62.0041 57.0902 61.425C57.0874 60.5437 57.086 59.661 57.0902 58.7798V58.7812ZM63.3799 67.2764C63.3743 67.8035 63.055 68.1099 62.5191 68.1113C60.9931 68.1169 59.4657 68.1169 57.9383 68.1113C57.4067 68.1099 57.0944 67.7922 57.0916 67.2666C57.086 66.3628 57.086 65.4576 57.0916 64.5524C57.0944 64.0394 57.3982 63.7274 57.913 63.7203C58.6809 63.7105 59.4517 63.7175 60.2196 63.7175C60.9875 63.7175 61.7118 63.7161 62.4587 63.7175C63.0789 63.7189 63.3757 64.0042 63.3813 64.6283C63.3897 65.5096 63.3883 66.3923 63.3785 67.2736L63.3799 67.2764ZM61.5796 50.0428C58.6387 50.0034 55.6978 50.0301 52.7569 50.0301C49.816 50.0301 46.8737 50.0048 43.9328 50.0428C42.7852 50.0582 42.096 49.2374 42.1072 48.2043C42.1354 45.6602 42.1157 43.1161 42.1157 40.5707C42.1157 39.4195 42.7739 38.7603 43.9258 38.7589C49.8076 38.7589 55.6908 38.7589 61.5726 38.7589C62.7329 38.7589 63.3827 39.4083 63.3827 40.565C63.3827 43.1204 63.3616 45.6771 63.394 48.231C63.4066 49.2149 62.7231 50.0582 61.5782 50.0428H61.5796Z" fill="#0077C4"/>
<path d="M43.8976 17.9228C45.4236 17.9285 46.9496 17.9242 48.4742 17.9228C48.5571 17.9228 48.6401 17.9074 48.7062 17.9003C46.5614 15.7386 44.4264 13.5867 42.2295 11.3729V11.7819C42.2295 13.2732 42.2295 14.7645 42.2295 16.2544C42.2295 17.2903 42.8554 17.9186 43.8976 17.9214V17.9228Z" fill="#0077C4"/>
</svg>
