<svg width="179" height="73" viewBox="0 0 179 73" fill="none" xmlns="http://www.w3.org/2000/svg">
<g clip-path="url(#clip0_195_2086)">
<path d="M82.4949 4.28246L72.6984 11.0636H64.1621V16.9744L56.8522 22.0262V5.34184C56.8522 4.52952 57.2198 4.13272 57.9474 4.13272H81.8254C82.1011 4.13272 82.3205 4.18139 82.4949 4.28059V4.28246Z" fill="#00B6E1"/>
<path d="M83.0106 6.10736V9.89568C83.0106 10.1989 82.9093 10.4684 82.703 10.708C82.4949 10.942 82.1873 11.0636 81.7785 11.0636H75.862L83.0125 6.10736H83.0106Z" fill="#F0F1F2"/>
<path d="M84.4152 36.0152V40.6365C84.4152 41.3477 84.0476 41.7033 83.32 41.7033H57.9474C57.6492 41.7033 57.3886 41.6191 57.1767 41.4488C56.9591 41.2784 56.8522 41.0089 56.8522 40.6421V24.2217L64.1621 19.1606V34.7706H83.2731C83.7363 34.7706 84.0382 34.8716 84.1882 35.0775C84.3364 35.2797 84.417 35.5922 84.417 36.0171L84.4152 36.0152Z" fill="#0077C4"/>
<path d="M94.5886 13.5249V40.6365C94.5886 41.3477 94.2004 41.7033 93.424 41.7033H88.3739C87.7101 41.6659 87.38 41.3159 87.38 40.6365V5.29505C87.38 5.20521 87.3856 5.11911 87.4006 5.0405L94.5867 13.5249H94.5886Z" fill="#0077C4"/>
<path d="M108.852 4.13272L96.1245 12.1773L88.9871 4.13272H108.852Z" fill="#00B6E1"/>
<path d="M113.094 5.34182V9.74593C113.094 10.0491 112.998 10.3243 112.796 10.5676C112.599 10.8109 112.317 10.9345 111.956 10.9345H101.276L112.248 4.15329C112.811 4.24875 113.094 4.6418 113.094 5.34182Z" fill="#F0F1F2"/>
<path d="M123.772 0.466053L118.909 12.5628L116.342 9.22186L94.7705 23.838L87.38 16.4635L83.7494 12.8399L64.1621 21.4085L56.8523 24.6072L55.337 25.2698L56.8523 24.2198L64.1621 19.1587L75.862 11.0617L83.0106 6.10735L86.3505 3.80329L87.4025 5.04049L94.5886 13.5249L95.4456 14.5319L101.276 10.9345L112.248 4.15517L112.816 3.80329L110.759 0L123.772 0.466053Z" fill="#000076"/>
<path d="M75.862 23.3719H61.2273V29.1499H75.862V23.3719Z" fill="#0077C4"/>
<path d="M107.183 23.3719H92.5483V29.1499H107.183V23.3719Z" fill="#0077C4"/>
<path d="M0.760648 52.5367C0.766273 52.1811 0.931298 52.007 1.2501 52.007H11.8398C12.0311 52.007 12.1642 52.0557 12.243 52.1661C12.3236 52.2728 12.3555 52.4151 12.3555 52.5798L12.3236 54.5488C12.318 54.6817 12.2749 54.8033 12.1792 54.9044C12.0836 55.0167 11.9448 55.0635 11.7648 55.0635H3.95613L3.898 58.4756H9.92141C10.0658 58.4588 10.1821 58.4925 10.2665 58.5711C10.3565 58.6515 10.394 58.7826 10.394 58.9697L10.3565 60.9968C10.3565 61.1353 10.319 61.2513 10.244 61.358C10.1689 61.4647 10.0527 61.5115 9.88765 61.5115H3.84924L3.77985 65.5974H11.8755C12.0836 65.5974 12.2111 65.6405 12.2786 65.7303C12.3424 65.8258 12.3743 65.9643 12.3686 66.1496L12.3368 68.1916C12.3311 68.5042 12.1661 68.6633 11.8473 68.6633H0.972555C0.839409 68.6633 0.728768 68.6202 0.636879 68.5472C0.546865 68.478 0.498108 68.3563 0.498108 68.1916L0.758772 52.5405L0.760648 52.5367ZM13.7264 68.5004C13.6195 68.5004 13.567 68.4518 13.567 68.3619C13.567 68.3245 13.5876 68.2665 13.6251 68.1972V68.1598C13.6251 68.1167 13.642 68.0699 13.6626 68.0269C13.6795 67.9782 13.7057 67.9464 13.7264 67.9202L18.3827 61.2888C17.9889 60.6898 17.6269 60.1264 17.2819 59.6061C16.9312 59.0914 16.5899 58.5879 16.2711 58.0994C15.9411 57.6165 15.6166 57.1392 15.3035 56.6619C14.979 56.1847 14.6546 55.6905 14.3096 55.1758C14.2514 55.0916 14.2027 55.0111 14.1764 54.9269C14.1389 54.8464 14.1183 54.7734 14.1239 54.7098C14.1239 54.6255 14.1614 54.5507 14.2458 54.4983C14.3208 54.4402 14.454 54.414 14.6284 54.414H16.6274C16.8393 54.414 17.01 54.4346 17.1375 54.4664C17.2706 54.4983 17.3775 54.5507 17.4675 54.6255C17.5576 54.7004 17.6382 54.7959 17.717 54.9175C17.792 55.0336 17.882 55.1777 17.9832 55.3424C18.3714 55.9469 18.7484 56.5571 19.1103 57.1673C19.4722 57.7831 19.8379 58.3933 20.2111 59.009C20.4136 58.7171 20.6255 58.3989 20.8487 58.0545C21.0718 57.7045 21.295 57.3432 21.5182 56.982C21.7413 56.6208 21.9645 56.2651 22.182 55.9151C22.3995 55.5651 22.6077 55.2413 22.8046 54.9381C22.9321 54.7416 23.0446 54.6087 23.1553 54.5301C23.2565 54.4496 23.3841 54.414 23.5491 54.414H25.9945C26.1276 54.414 26.2382 54.4402 26.3301 54.4833C26.4145 54.5357 26.4577 54.6106 26.4577 54.7116C26.4633 54.7959 26.4089 54.9194 26.3095 55.0785C25.9382 55.5932 25.5819 56.0911 25.2462 56.574C24.9068 57.0681 24.5599 57.5547 24.2092 58.0432C23.8585 58.5411 23.5022 59.0521 23.1403 59.5706C22.769 60.0965 22.3752 60.6636 21.9551 61.2682C22.6883 62.3556 23.4216 63.4431 24.1454 64.5306C24.8693 65.618 25.5969 66.7111 26.3358 67.8042C26.3883 67.894 26.4426 67.9801 26.4839 68.0756C26.527 68.171 26.5533 68.2609 26.5477 68.347C26.5477 68.4368 26.5102 68.5117 26.4314 68.5697C26.3564 68.6277 26.2289 68.6595 26.0488 68.6595H23.4703C23.3053 68.6595 23.1778 68.6109 23.0765 68.5322C22.9753 68.448 22.874 68.3245 22.7727 68.1617L22.4914 67.705C22.092 67.0255 21.7001 66.3461 21.3062 65.6723C20.9124 64.9985 20.5243 64.3247 20.1323 63.6452L17.6401 67.7312C17.4919 67.9745 17.3363 68.1935 17.1769 68.3788C17.0925 68.4686 16.9912 68.5322 16.8693 68.5697C16.7531 68.6127 16.6293 68.6389 16.498 68.6502C16.3649 68.667 16.2261 68.6708 16.0986 68.667C15.9654 68.6614 15.8379 68.6614 15.7104 68.6614H13.9458C13.8389 68.6614 13.7657 68.609 13.7282 68.5023L13.7264 68.5004ZM29.1993 54.4777C29.295 54.4346 29.3962 54.4084 29.4919 54.3934C29.5931 54.3878 29.6944 54.3822 29.7844 54.3822H30.8946C31.1121 54.3822 31.2659 54.4458 31.3578 54.5731C31.4478 54.7004 31.5115 54.8595 31.5434 55.0504L31.7516 56.4242C32.0122 56.121 32.2823 55.8346 32.5805 55.5651C32.8786 55.2993 33.203 55.056 33.5593 54.8483C33.91 54.6368 34.2982 54.472 34.7333 54.3504C35.159 54.2287 35.6315 54.1651 36.1585 54.1651C36.828 54.1651 37.4599 54.2549 38.0619 54.4253C38.662 54.6049 39.2208 54.8557 39.7422 55.1739C40.2635 55.4921 40.7248 55.8683 41.1449 56.3138C41.5593 56.7593 41.9212 57.259 42.2138 57.7999C42.512 58.3465 42.7295 58.9304 42.8889 59.5612C43.0427 60.1863 43.112 60.8452 43.1008 61.5246C43.0895 62.204 42.9939 62.861 42.8251 63.488C42.6451 64.1188 42.4051 64.7028 42.0919 65.2493C41.7787 65.7958 41.3999 66.2937 40.9705 66.741C40.5392 67.1921 40.061 67.5739 39.5359 67.8921C38.9995 68.2047 38.4295 68.4536 37.8237 68.6296C37.2124 68.8055 36.5804 68.8954 35.9203 68.8954C35.4365 68.8954 35.0052 68.8429 34.6076 68.7419C34.2082 68.6352 33.8481 68.4873 33.5068 68.302C33.1674 68.1223 32.858 67.909 32.5711 67.6713C32.2785 67.4279 32.0179 67.1678 31.7685 66.8852L31.6784 72.3505C31.6728 72.5302 31.6147 72.6855 31.5078 72.8128C31.3915 72.9401 31.2209 73.0037 31.0033 73.0037H29.1806C29.0268 73.0037 28.8768 72.9457 28.7286 72.8334C28.5842 72.7118 28.5111 72.5527 28.5167 72.3505L28.8036 55.0485C28.8036 54.8894 28.8411 54.7678 28.9161 54.6723C28.9855 54.5825 29.0812 54.5188 29.2031 54.4814L29.1993 54.4777ZM39.9691 61.5246C39.9747 60.9313 39.8791 60.3735 39.6821 59.8382C39.4852 59.3085 39.2096 58.835 38.8533 58.4326C38.4913 58.0339 38.0657 57.7157 37.5725 57.4836C37.083 57.244 36.5467 57.1336 35.9672 57.1336C35.3877 57.1336 34.8402 57.2459 34.3301 57.4724C33.8144 57.712 33.3624 58.0245 32.9799 58.412C32.5861 58.805 32.2729 59.2617 32.0329 59.7858C31.7928 60.3099 31.6616 60.862 31.6447 61.446V61.5265C31.6334 62.1254 31.7347 62.6888 31.9485 63.2297C32.166 63.7706 32.4642 64.2423 32.8411 64.641C33.2124 65.049 33.6644 65.3728 34.1744 65.6068C34.6901 65.8501 35.2377 65.9736 35.8228 65.9736C36.4079 65.9736 36.9386 65.852 37.4393 65.6068C37.9438 65.3728 38.3751 65.049 38.752 64.641C39.1196 64.2423 39.4102 63.7706 39.6296 63.2297C39.8415 62.6888 39.9597 62.1254 39.9691 61.5265V61.5246ZM59.5001 67.9969C59.4945 68.1298 59.4683 68.2459 59.4101 68.3264C59.3576 68.4106 59.2826 68.4798 59.1982 68.5229C59.1082 68.5753 59.0126 68.6071 58.8944 68.6296C58.7782 68.6464 58.66 68.6614 58.5325 68.6614H57.156C56.9273 68.6614 56.7679 68.5978 56.6778 68.4705C56.5878 68.3432 56.5184 68.1841 56.4809 67.982L56.4322 67.033C56.1715 67.2932 55.879 67.5421 55.5658 67.7705C55.2526 67.9988 54.9113 68.1953 54.555 68.3601C54.1875 68.536 53.8049 68.6633 53.4017 68.7531C52.9929 68.8486 52.5822 68.8972 52.1584 68.8972C51.5002 68.8972 50.8663 68.8074 50.2606 68.6314C49.6549 68.4555 49.0867 68.2066 48.5541 67.894C48.0234 67.5758 47.5433 67.194 47.1139 66.7429C46.6882 66.2974 46.3225 65.7977 46.0187 65.2512C45.7149 64.7046 45.4824 64.1207 45.3267 63.4899C45.1617 62.8647 45.0867 62.2059 45.098 61.5265C45.1092 60.8471 45.2049 60.1901 45.3905 59.5631C45.5705 58.9323 45.8218 58.3483 46.1406 57.8018C46.465 57.2609 46.842 56.7611 47.2883 56.3157C47.729 55.8702 48.2241 55.494 48.7604 55.1758C49.3024 54.8576 49.8818 54.6087 50.4932 54.4271C51.1045 54.2568 51.7421 54.167 52.4022 54.167C52.8691 54.167 53.3173 54.2194 53.7411 54.3204C54.1612 54.4215 54.555 54.5638 54.9263 54.7453C55.2939 54.9306 55.6277 55.1477 55.9409 55.4079C56.2484 55.6681 56.5316 55.9488 56.781 56.252L56.9573 55.0523C56.9891 54.9194 57.0323 54.809 57.0642 54.7229C57.096 54.6386 57.1448 54.5694 57.1917 54.5114C57.2348 54.4589 57.2986 54.4271 57.3717 54.4103C57.4467 54.3897 57.5423 54.3841 57.6474 54.3841H58.7425C58.8588 54.3841 58.9826 54.3953 59.0988 54.4159C59.2151 54.4365 59.322 54.4739 59.412 54.517C59.5076 54.5694 59.577 54.6386 59.6352 54.7247C59.6877 54.809 59.7102 54.9213 59.7102 55.0485L59.4983 67.9988L59.5001 67.9969ZM48.1884 61.5246C48.1772 62.1236 48.2728 62.6869 48.4697 63.2222C48.6666 63.7632 48.9367 64.2311 49.2986 64.6335C49.6605 65.0322 50.0862 65.3504 50.5682 65.5881C51.0576 65.822 51.5996 65.9437 52.1847 65.9437C52.7697 65.9437 53.338 65.822 53.8593 65.5881C54.3806 65.3485 54.8326 65.0303 55.2207 64.6335C55.6089 64.2311 55.9127 63.7632 56.1396 63.2222C56.3684 62.6869 56.4847 62.1236 56.4959 61.5246C56.5072 60.9313 56.4059 60.3735 56.1921 59.8382C55.984 59.3085 55.6933 58.835 55.3201 58.4269C54.9488 58.0283 54.5063 57.7045 53.9906 57.4612C53.4805 57.2272 52.9216 57.1055 52.3272 57.1055C51.7327 57.1055 51.2001 57.2272 50.7051 57.4612C50.2062 57.7045 49.7749 58.0283 49.398 58.4269C49.0267 58.835 48.7398 59.3085 48.5204 59.8382C48.3085 60.3735 48.1903 60.9313 48.1847 61.5246H48.1884ZM67.3782 68.6595C66.7987 68.6483 66.2568 68.5528 65.7561 68.3844C65.246 68.2141 64.8091 67.9651 64.4321 67.6413C64.0608 67.3175 63.7683 66.9188 63.5545 66.4416C63.3463 65.9699 63.247 65.429 63.2507 64.8225L63.2826 62.9714L63.3782 57.2515H62.1124C61.9005 57.2515 61.7449 57.1991 61.6455 57.1037C61.5386 57.0082 61.4861 56.8435 61.4917 56.6208L61.5179 55.0017C61.5179 54.7902 61.5761 54.6349 61.6886 54.545C61.7955 54.4552 61.9493 54.4122 62.1612 54.4122H63.427C63.4326 54.0135 63.4382 53.6167 63.4532 53.2236C63.4645 52.8362 63.4701 52.4375 63.4795 52.0463C63.4795 51.8928 63.5282 51.7749 63.6183 51.6907C63.7139 51.6102 63.8527 51.5316 64.0496 51.4624C64.1715 51.4193 64.3252 51.3613 64.5071 51.2976C64.6834 51.234 64.8634 51.1704 65.0491 51.1123C65.2404 51.0543 65.4204 51.0057 65.5967 50.9589C65.773 50.9214 65.9155 50.9008 66.0318 50.9008C66.2605 50.9008 66.4087 50.9645 66.4781 51.0918C66.5418 51.219 66.5793 51.3894 66.5737 51.5952C66.5625 52.0669 66.5568 52.5348 66.5418 53.0009C66.5306 53.4726 66.5212 53.9405 66.5156 54.4122H68.0946C68.2915 54.4122 68.4302 54.4646 68.5353 54.56C68.6309 54.6611 68.6797 54.8202 68.6797 55.0429L68.6534 56.5702C68.6478 56.8135 68.5953 56.9839 68.494 57.0906C68.3871 57.1972 68.2446 57.2496 68.0477 57.2496H66.4687C66.4574 57.7382 66.4518 58.1462 66.4481 58.4812C66.4424 58.82 66.4368 59.1176 66.4312 59.3722C66.4312 59.6323 66.4256 59.87 66.4256 60.0946C66.4312 60.3174 66.4256 60.5663 66.4199 60.8265C66.4143 61.0866 66.4087 61.388 66.4031 61.723C66.3974 62.0618 66.3918 62.4661 66.3862 62.9583C66.3806 62.9696 66.3806 62.9845 66.3749 63.0014C66.3693 63.022 66.3693 63.0332 66.3693 63.0444L66.343 64.5137C66.3374 65.0116 66.4237 65.3672 66.615 65.5862C66.8006 65.7977 67.11 65.91 67.5301 65.91C67.6839 65.91 67.8058 65.968 67.892 66.0747C67.9764 66.1908 68.0139 66.3236 68.0139 66.4827L67.9877 68.0381C67.982 68.2346 67.9352 68.3825 67.8226 68.4892C67.7158 68.6015 67.5676 68.6595 67.3763 68.6595H67.3782ZM72.1996 64.6429C72.3477 64.8918 72.539 65.1052 72.7734 65.2792C73.0022 65.4589 73.2403 65.603 73.4804 65.7191C73.7242 65.8407 73.9586 65.9212 74.1817 65.9736C74.4049 66.0317 74.5849 66.0541 74.7124 66.0541C74.9206 66.0541 75.1588 66.0335 75.4363 65.9849C75.7176 65.9418 75.9839 65.8632 76.2277 65.7453C76.4715 65.6292 76.6852 65.4701 76.8653 65.2736C77.0359 65.0771 77.1259 64.8225 77.1316 64.5156C77.1372 64.218 77.0734 63.9747 76.9459 63.7894C76.8128 63.6041 76.6327 63.445 76.4039 63.3233C76.1752 63.2017 75.9089 63.095 75.6163 63.0107C75.3182 62.9303 75.005 62.8404 74.6749 62.745C73.9154 62.5335 73.2666 62.2883 72.7303 61.9869C72.1939 61.6949 71.7476 61.3618 71.4119 60.9781C71.0725 60.5962 70.8212 60.177 70.6675 59.7203C70.5137 59.2636 70.4387 58.7713 70.4499 58.2285C70.4612 57.624 70.5887 57.0662 70.8325 56.5627C71.0725 56.0593 71.4063 55.6344 71.8376 55.2731C72.2689 54.9175 72.7847 54.6368 73.3847 54.4402C73.9848 54.2437 74.6449 54.1482 75.3725 54.1482C75.8826 54.1482 76.3402 54.1913 76.7396 54.2868C77.1428 54.3822 77.516 54.5207 77.8554 54.706C78.1948 54.8913 78.5136 55.1253 78.8118 55.4116C79.1156 55.698 79.4119 56.0274 79.727 56.4093C79.8395 56.5421 79.892 56.6807 79.8863 56.8079C79.8863 56.9408 79.8057 57.0681 79.6576 57.1898C79.5507 57.274 79.4175 57.3863 79.2638 57.5192C79.1156 57.6521 78.96 57.785 78.8174 57.9122C78.6637 58.0395 78.5249 58.1518 78.3917 58.236C78.2586 58.3315 78.148 58.3802 78.0561 58.3802C77.8967 58.3802 77.7429 58.2847 77.5929 58.0882C77.4335 57.886 77.2741 57.7176 77.1147 57.5678C76.9553 57.4237 76.7903 57.3077 76.6159 57.2122C76.4396 57.1168 76.2539 57.0475 76.0476 57.0007C75.8451 56.952 75.622 56.9258 75.3782 56.9258C75.1869 56.9258 74.9787 56.9577 74.7612 57.0157C74.538 57.0737 74.3468 57.1636 74.1667 57.2871C73.9811 57.4031 73.8217 57.5529 73.7035 57.7176C73.5816 57.8879 73.5179 58.0732 73.5123 58.2847C73.5066 58.5243 73.5816 58.7302 73.7242 58.8949C73.8723 59.0652 74.0636 59.2131 74.2924 59.3291C74.5212 59.4508 74.7706 59.5518 75.0369 59.6361C75.3032 59.7203 75.5582 59.7952 75.7963 59.8644C76.4602 60.0609 77.0772 60.2837 77.6416 60.5382C78.1948 60.7928 78.6787 61.0997 79.0762 61.461C79.4757 61.8222 79.7832 62.2471 80.0064 62.7393C80.2295 63.2279 80.3308 63.8062 80.3195 64.4632C80.3083 65.1538 80.1601 65.779 79.8845 66.3311C79.6032 66.8833 79.2206 67.3493 78.7368 67.7312C78.2474 68.1074 77.6679 68.405 77.0153 68.6015C76.3571 68.8036 75.6388 68.9047 74.8737 68.9047C74.4105 68.9047 73.9492 68.8561 73.4748 68.7512C72.9966 68.6502 72.5446 68.4911 72.1133 68.2852C71.682 68.0737 71.2788 67.8023 70.9169 67.4635C70.5549 67.1341 70.253 66.741 70.0074 66.2806C69.9005 66.1009 69.848 65.925 69.848 65.7827C69.8536 65.6873 69.8798 65.5974 69.9286 65.5282C69.9773 65.4589 70.0411 65.3841 70.1199 65.3167L71.3688 64.3565C71.4757 64.2872 71.577 64.2554 71.667 64.2554C71.7682 64.2554 71.8639 64.2872 71.9426 64.3565C72.0233 64.4257 72.1077 64.5324 72.1977 64.6485L72.1996 64.6429Z" fill="#000076"/>
<path d="M86.0523 52.5199C86.0579 52.1755 86.2229 52.0051 86.5361 52.0051H96.9064C97.2459 52.0051 97.4109 52.1811 97.4053 52.5348L97.3846 53.6485C97.3846 53.7926 97.3359 53.9087 97.2459 54.0191C97.1502 54.1258 97.0227 54.1782 96.8689 54.1782H88.1507L88.0607 59.6847C89.2253 59.6847 90.3673 59.6847 91.4944 59.6903C92.6214 59.696 93.7747 59.696 94.9449 59.696C95.078 59.696 95.1943 59.7334 95.2843 59.8176C95.38 59.8981 95.4287 60.0291 95.4231 60.22L95.4025 61.3561C95.4025 61.489 95.3537 61.5995 95.2749 61.7118C95.1849 61.8185 95.0668 61.8709 94.9074 61.8709H88.0232L87.9163 68.1841C87.9107 68.4967 87.7363 68.6558 87.395 68.6558H86.2567C85.9435 68.6558 85.7841 68.4967 85.7898 68.1841L86.0504 52.5161L86.0523 52.5199ZM101.681 68.1616C101.675 68.4911 101.51 68.6595 101.191 68.6595H100.059C99.7194 68.6595 99.5431 68.4892 99.5487 68.1616L99.7719 54.9025C99.7719 54.7584 99.8244 54.6367 99.92 54.5469C100.016 54.4571 100.132 54.414 100.265 54.414H101.403C101.557 54.414 101.675 54.4664 101.771 54.5619C101.861 54.6573 101.904 54.7696 101.898 54.9007L101.681 68.1598V68.1616ZM101.951 51.8198C101.945 52.1493 101.78 52.3177 101.461 52.3177H100.329C99.9838 52.3177 99.8131 52.1474 99.8187 51.8198L99.8394 50.6687C99.8394 50.5153 99.8919 50.3974 99.9875 50.3075C100.083 50.2177 100.199 50.1746 100.333 50.1746H101.471C101.625 50.1746 101.743 50.2177 101.838 50.3131C101.928 50.4086 101.972 50.5246 101.966 50.6687L101.949 51.8198H101.951ZM107.554 56.2969C107.766 56.0368 108.006 55.771 108.267 55.5277C108.522 55.2787 108.814 55.0504 109.133 54.8539C109.458 54.6573 109.814 54.4982 110.202 54.3766C110.59 54.2549 111.025 54.1913 111.515 54.1913C112.413 54.1913 113.205 54.3504 113.891 54.6686C114.572 54.9868 115.134 55.4172 115.592 55.9638C116.049 56.5216 116.389 57.1635 116.618 57.901C116.841 58.6441 116.948 59.4339 116.936 60.278L116.809 67.8977C116.803 68.1523 116.739 68.3432 116.606 68.4705C116.473 68.5978 116.308 68.6614 116.117 68.6614H115.297C115.031 68.6614 114.857 68.6034 114.787 68.4855C114.707 68.3788 114.671 68.1879 114.675 67.9277L114.802 60.2762C114.808 59.8307 114.753 59.374 114.643 58.9024C114.53 58.44 114.339 58.0114 114.075 57.6296C113.799 57.2534 113.443 56.9389 112.996 56.6956C112.544 56.4617 111.991 56.34 111.333 56.34C110.913 56.34 110.478 56.4205 110.035 56.5683C109.583 56.7274 109.175 56.9502 108.801 57.2534C108.43 57.551 108.121 57.9272 107.882 58.3614C107.633 58.8013 107.506 59.3104 107.494 59.8738L107.356 68.1616C107.35 68.4911 107.185 68.6595 106.866 68.6595H105.733C105.394 68.6595 105.223 68.4892 105.229 68.1616L105.446 54.9025C105.446 54.7584 105.499 54.6367 105.595 54.5469C105.69 54.4571 105.807 54.414 105.94 54.414H107.078C107.232 54.414 107.35 54.4664 107.446 54.5619C107.536 54.6573 107.579 54.7696 107.573 54.9007L107.552 56.2969H107.554ZM131.162 66.7597C130.519 67.4167 129.786 67.937 128.94 68.3151C128.1 68.6913 127.196 68.8766 126.219 68.8766C125.565 68.8766 124.938 68.7924 124.332 68.6109C123.715 68.4405 123.147 68.186 122.626 67.8622C122.095 67.5384 121.615 67.1565 121.18 66.7055C120.745 66.2544 120.383 65.7565 120.074 65.2044C119.766 64.6578 119.526 64.0682 119.367 63.4431C119.202 62.8179 119.127 62.1703 119.138 61.5021C119.149 60.8283 119.245 60.1807 119.43 59.55C119.61 58.9286 119.866 58.3465 120.196 57.7999C120.52 57.259 120.903 56.7593 121.355 56.3082C121.801 55.8571 122.296 55.4753 122.832 55.1515C123.369 54.8277 123.948 54.5787 124.559 54.4084C125.165 54.2325 125.803 54.1482 126.463 54.1482C127.442 54.1482 128.34 54.3391 129.169 54.7097C129.998 55.086 130.716 55.6063 131.333 56.2651L131.359 54.8969C131.365 54.5675 131.53 54.4028 131.849 54.4028H132.987C133.326 54.4028 133.497 54.5675 133.491 54.8969L133.274 68.1616C133.274 68.3151 133.221 68.4368 133.126 68.5229C133.03 68.6127 132.914 68.6614 132.781 68.6614H131.642C131.483 68.6614 131.367 68.609 131.275 68.5135C131.183 68.4181 131.136 68.2964 131.136 68.1635L131.162 66.7635V66.7597ZM131.357 61.5021C131.369 60.7965 131.25 60.1283 131.001 59.4863C130.74 58.8443 130.395 58.2866 129.949 57.8093C129.503 57.332 128.976 56.9502 128.37 56.6638C127.764 56.3774 127.115 56.2389 126.425 56.2389C125.735 56.2389 125.092 56.3774 124.484 56.6638C123.873 56.9502 123.342 57.332 122.885 57.8093C122.422 58.2866 122.056 58.8443 121.79 59.4863C121.518 60.1283 121.375 60.7965 121.364 61.5021C121.353 62.1965 121.476 62.8666 121.726 63.5067C121.97 64.1487 122.317 64.7102 122.763 65.2044C123.204 65.6929 123.725 66.0859 124.325 66.376C124.919 66.6736 125.559 66.8159 126.249 66.8159C126.939 66.8159 127.594 66.6718 128.205 66.376C128.822 66.0841 129.364 65.691 129.827 65.2044C130.29 64.7102 130.656 64.1487 130.933 63.5067C131.205 62.8647 131.348 62.1965 131.359 61.5021H131.357ZM138.737 56.2969C138.945 56.0368 139.188 55.771 139.443 55.5277C139.704 55.2787 139.997 55.0504 140.315 54.8539C140.64 54.6573 140.996 54.4982 141.384 54.3766C141.773 54.2549 142.208 54.1913 142.691 54.1913C143.595 54.1913 144.381 54.3504 145.067 54.6686C145.748 54.9868 146.316 55.4172 146.774 55.9638C147.232 56.5216 147.571 57.1635 147.8 57.901C148.023 58.6441 148.13 59.4339 148.113 60.278L147.991 67.8977C147.985 68.1523 147.916 68.3432 147.783 68.4705C147.65 68.5978 147.49 68.6614 147.299 68.6614H146.48C146.213 68.6614 146.039 68.6034 145.964 68.4855C145.889 68.3788 145.851 68.1879 145.857 67.9277L145.984 60.2762C145.99 59.8307 145.936 59.374 145.825 58.9024C145.713 58.44 145.521 58.0114 145.257 57.6296C144.981 57.2534 144.625 56.9389 144.173 56.6956C143.727 56.4617 143.173 56.34 142.515 56.34C142.095 56.34 141.66 56.4205 141.214 56.5683C140.767 56.7274 140.359 56.9502 139.985 57.2534C139.614 57.551 139.305 57.9272 139.061 58.3614C138.812 58.8013 138.684 59.3104 138.678 59.8738L138.54 68.1616C138.534 68.4911 138.369 68.6595 138.05 68.6595H136.917C136.578 68.6595 136.402 68.4892 136.407 68.1616L136.631 54.9025C136.631 54.7584 136.683 54.6367 136.779 54.5469C136.874 54.4571 136.991 54.414 137.118 54.414H138.26C138.414 54.414 138.532 54.4664 138.622 54.5619C138.718 54.6573 138.761 54.7696 138.755 54.9007L138.735 56.2969H138.737ZM160.531 65.4121C160.584 65.3691 160.638 65.3279 160.702 65.2736C160.765 65.2306 160.835 65.1894 160.904 65.1669C160.974 65.1463 161.049 65.1463 161.116 65.1669C161.186 65.1875 161.249 65.2512 161.324 65.3466C161.469 65.5431 161.579 65.7135 161.669 65.8407C161.765 65.968 161.834 66.0691 161.892 66.144C161.951 66.2282 161.994 66.2881 162.026 66.3236C162.058 66.376 162.084 66.4397 162.116 66.4996C162.136 66.5576 162.142 66.6269 162.133 66.6961C162.112 66.771 162.074 66.8496 162.011 66.9357C161.947 67.0255 161.846 67.121 161.712 67.2221C161.388 67.4766 161.064 67.705 160.719 67.9071C160.374 68.1186 160.012 68.2945 159.635 68.4424C159.263 68.5959 158.87 68.7138 158.455 68.798C158.035 68.8785 157.6 68.9197 157.142 68.9197C156.488 68.9197 155.856 68.8298 155.256 68.6483C154.65 68.478 154.082 68.2234 153.555 67.8996C153.019 67.5758 152.529 67.1884 152.098 66.7373C151.663 66.2918 151.284 65.7921 150.976 65.2455C150.658 64.699 150.418 64.115 150.258 63.4843C150.088 62.8629 150.009 62.2115 150.018 61.5471C150.029 60.8732 150.131 60.22 150.322 59.5949C150.502 58.9697 150.763 58.3858 151.098 57.8392C151.423 57.2983 151.817 56.8042 152.269 56.3531C152.715 55.8964 153.216 55.509 153.763 55.1852C154.305 54.8614 154.879 54.6124 155.496 54.4365C156.102 54.2605 156.73 54.1763 157.382 54.1763C157.791 54.1763 158.202 54.2137 158.605 54.2886C159.005 54.3728 159.396 54.4795 159.775 54.6124C160.152 54.7565 160.503 54.9194 160.833 55.1065C161.157 55.2862 161.456 55.494 161.72 55.7055C161.769 55.7542 161.827 55.8009 161.896 55.859C161.966 55.917 162.024 55.9806 162.073 56.0499C162.116 56.1191 162.148 56.2034 162.163 56.2895C162.174 56.3737 162.151 56.4691 162.099 56.5646L161.279 57.6408C161.082 57.8954 160.865 57.8898 160.619 57.624C160.422 57.4162 160.205 57.2309 159.95 57.0625C159.7 56.8865 159.428 56.7443 159.136 56.6226C158.843 56.501 158.541 56.4055 158.226 56.3363C157.908 56.267 157.6 56.2352 157.291 56.2352C156.653 56.2352 156.025 56.3737 155.419 56.6601C154.808 56.9464 154.271 57.3283 153.803 57.8168C153.336 58.3109 152.957 58.8668 152.67 59.5088C152.377 60.1508 152.229 60.8302 152.218 61.5471C152.201 62.2639 152.33 62.9377 152.595 63.5797C152.856 64.2217 153.217 64.7739 153.673 65.2512C154.125 65.7284 154.656 66.1103 155.252 66.391C155.852 66.6774 156.475 66.8159 157.129 66.8159C157.532 66.8159 157.894 66.7785 158.224 66.6942C158.554 66.6194 158.847 66.5183 159.117 66.3873C159.383 66.2544 159.633 66.1065 159.862 65.9362C160.096 65.7659 160.319 65.5974 160.531 65.4102V65.4121ZM174.671 65.3971C174.734 65.3391 174.804 65.2811 174.888 65.2212C174.963 65.1725 175.042 65.1463 175.123 65.1463C175.23 65.1463 175.335 65.2156 175.436 65.3485C175.58 65.545 175.696 65.7153 175.786 65.8426C175.876 65.9699 175.951 66.071 176.01 66.1458C176.062 66.2301 176.105 66.2899 176.137 66.3255C176.169 66.3686 176.201 66.421 176.222 66.464C176.238 66.5164 176.253 66.5707 176.248 66.6287C176.248 66.713 176.216 66.7934 176.152 66.8889C176.088 66.9843 175.981 67.0967 175.822 67.2239C175.503 67.4785 175.173 67.7068 174.828 67.909C174.483 68.1205 174.127 68.2964 173.75 68.4443C173.373 68.5978 172.979 68.7157 172.565 68.7999C172.15 68.8804 171.71 68.9216 171.252 68.9216C170.598 68.9216 169.971 68.8317 169.371 68.6502C168.76 68.4798 168.197 68.2253 167.665 67.9015C167.128 67.5777 166.644 67.1902 166.208 66.7392C165.772 66.2937 165.394 65.7939 165.086 65.2474C164.773 64.7009 164.533 64.1169 164.368 63.4861C164.197 62.8647 164.118 62.2134 164.133 61.5489C164.145 60.8751 164.235 60.2219 164.409 59.5968C164.589 58.966 164.829 58.382 165.142 57.8355C165.456 57.2889 165.834 56.7911 166.269 56.34C166.71 55.8889 167.2 55.5071 167.747 55.1833C168.295 54.8651 168.88 54.6162 169.506 54.4402C170.132 54.2643 170.798 54.1801 171.494 54.1801C172.042 54.1801 172.589 54.2437 173.125 54.371C173.667 54.4982 174.177 54.6779 174.673 54.9231C175.168 55.1627 175.629 55.464 176.06 55.8253C176.492 56.1865 176.874 56.5945 177.208 57.0606C177.665 57.7026 177.999 58.44 178.219 59.258C178.431 60.0797 178.523 61.0249 178.491 62.0973C178.485 62.4473 178.32 62.6233 177.996 62.6233H166.423C166.536 63.2222 166.748 63.7744 167.05 64.2835C167.353 64.7926 167.713 65.2381 168.145 65.6105C168.576 65.9867 169.06 66.2899 169.591 66.4958C170.112 66.7129 170.665 66.8196 171.239 66.8196C171.642 66.8196 172.004 66.7822 172.34 66.698C172.664 66.6231 172.962 66.522 173.232 66.391C173.504 66.2581 173.748 66.1103 173.982 65.9399C174.211 65.7696 174.429 65.6012 174.646 65.414L174.667 65.3971H174.671ZM168.786 57.0943C168.227 57.4705 167.74 57.959 167.323 58.5374C166.909 59.1157 166.628 59.7577 166.472 60.4465H176.396C176.327 59.8251 176.147 59.258 175.865 58.7489C175.573 58.251 175.207 57.8149 174.77 57.4537C174.329 57.0924 173.829 56.8117 173.272 56.6151C172.713 56.4186 172.139 56.3232 171.533 56.3232C171.055 56.3232 170.586 56.3868 170.119 56.5141C169.647 56.6357 169.21 56.8266 168.786 57.0924V57.0943Z" fill="#00B6E1"/>
</g>
<defs>
<clipPath id="clip0_195_2086">
<rect width="178" height="73" fill="white" transform="translate(0.5)"/>
</clipPath>
</defs>
</svg>
