<svg width="24" height="24" viewBox="0 0 24 24" fill="none" xmlns="http://www.w3.org/2000/svg">
<path d="M20.25 7.85449H3.75C3.37417 7.85449 3.0625 7.51449 3.0625 7.10449C3.0625 6.69449 3.37417 6.35449 3.75 6.35449H20.25C20.6258 6.35449 20.9375 6.69449 20.9375 7.10449C20.9375 7.51449 20.6258 7.85449 20.25 7.85449Z" fill="#111318"/>
<path d="M20.2759 12.7656H3.77588C3.40005 12.7656 3.08838 12.4256 3.08838 12.0156C3.08838 11.6056 3.40005 11.2656 3.77588 11.2656H20.2759C20.6517 11.2656 20.9634 11.6056 20.9634 12.0156C20.9634 12.4256 20.6517 12.7656 20.2759 12.7656Z" fill="#111318"/>
<path d="M20.25 17.7705H3.75C3.37417 17.7705 3.0625 17.4305 3.0625 17.0205C3.0625 16.6105 3.37417 16.2705 3.75 16.2705H20.25C20.6258 16.2705 20.9375 16.6105 20.9375 17.0205C20.9375 17.4305 20.6258 17.7705 20.25 17.7705Z" fill="#111318"/>
</svg>
